<?xml version="1.0" encoding="UTF-8" standalone="no"?>
<!DOCTYPE svg PUBLIC "-//W3C//DTD SVG 1.1//EN"
 "http://www.w3.org/Graphics/SVG/1.1/DTD/svg11.dtd">
<!-- Generated by graphviz version 2.43.0 (0)
 -->
<!-- Title: %3 Pages: 1 -->
<svg width="602pt" height="332pt"
 viewBox="0.00 0.00 602.00 332.00" xmlns="http://www.w3.org/2000/svg" xmlns:xlink="http://www.w3.org/1999/xlink">
<g id="graph0" class="graph" transform="scale(1 1) rotate(0) translate(4 328)">
<title>%3</title>
<polygon fill="#1b1b1d" stroke="transparent" points="-4,4 -4,-328 598,-328 598,4 -4,4"/>
<!-- Node(value=3, rank=2) -->
<g id="node1" class="node">
<title>Node(value=3, rank=2)</title>
<ellipse fill="none" stroke="white" cx="279" cy="-306" rx="27" ry="18"/>
<text text-anchor="middle" x="279" y="-302.3" font-family="'Cascadia Code PL', 'JetBrains Mono', 'Iosevka', 'Fira Code', 'Hack', monospace" font-size="14.00" fill="white">3</text>
</g>
<!-- Node(value=1, rank=1) -->
<g id="node2" class="node">
<title>Node(value=1, rank=1)</title>
<ellipse fill="none" stroke="red" cx="225" cy="-234" rx="27" ry="18"/>
<text text-anchor="middle" x="225" y="-230.3" font-family="'Cascadia Code PL', 'JetBrains Mono', 'Iosevka', 'Fira Code', 'Hack', monospace" font-size="14.00" fill="white">1</text>
</g>
<!-- Node(value=3, rank=2)&#45;&gt;Node(value=1, rank=1) -->
<g id="edge1" class="edge">
<title>Node(value=3, rank=2)&#45;&gt;Node(value=1, rank=1)</title>
<path fill="none" stroke="white" d="M267.02,-289.46C260.02,-280.4 251.06,-268.79 243.21,-258.61"/>
<polygon fill="transparent" stroke="white" points="245.83,-256.27 236.95,-250.49 240.29,-260.55 245.83,-256.27"/>
</g>
<!-- Node(value=5, rank=1) -->
<g id="node7" class="node">
<title>Node(value=5, rank=1)</title>
<ellipse fill="none" stroke="white" cx="333" cy="-234" rx="27" ry="18"/>
<text text-anchor="middle" x="333" y="-230.3" font-family="'Cascadia Code PL', 'JetBrains Mono', 'Iosevka', 'Fira Code', 'Hack', monospace" font-size="14.00" fill="white">5</text>
</g>
<!-- Node(value=3, rank=2)&#45;&gt;Node(value=5, rank=1) -->
<g id="edge4" class="edge">
<title>Node(value=3, rank=2)&#45;&gt;Node(value=5, rank=1)</title>
<path fill="none" stroke="white" d="M290.98,-289.46C297.98,-280.4 306.94,-268.79 314.79,-258.61"/>
<polygon fill="transparent" stroke="white" points="317.71,-260.55 321.05,-250.49 312.17,-256.27 317.71,-260.55"/>
</g>
<!-- Node(value=0, rank=0) -->
<g id="node5" class="node">
<title>Node(value=0, rank=0)</title>
<ellipse fill="none" stroke="white" cx="99" cy="-162" rx="27" ry="18"/>
<text text-anchor="middle" x="99" y="-158.3" font-family="'Cascadia Code PL', 'JetBrains Mono', 'Iosevka', 'Fira Code', 'Hack', monospace" font-size="14.00" fill="white">0</text>
</g>
<!-- Node(value=1, rank=1)&#45;&gt;Node(value=0, rank=0) -->
<g id="edge2" class="edge">
<title>Node(value=1, rank=1)&#45;&gt;Node(value=0, rank=0)</title>
<path fill="none" stroke="white" d="M204.76,-221.75C184,-210.22 151.52,-192.18 128.02,-179.12"/>
<polygon fill="transparent" stroke="white" points="129.64,-176.02 119.19,-174.22 126.24,-182.13 129.64,-176.02"/>
</g>
<!-- Node(value=2, rank=0) -->
<g id="node6" class="node">
<title>Node(value=2, rank=0)</title>
<ellipse fill="none" stroke="white" cx="225" cy="-162" rx="27" ry="18"/>
<text text-anchor="middle" x="225" y="-158.3" font-family="'Cascadia Code PL', 'JetBrains Mono', 'Iosevka', 'Fira Code', 'Hack', monospace" font-size="14.00" fill="white">2</text>
</g>
<!-- Node(value=1, rank=1)&#45;&gt;Node(value=2, rank=0) -->
<g id="edge3" class="edge">
<title>Node(value=1, rank=1)&#45;&gt;Node(value=2, rank=0)</title>
<path fill="none" stroke="white" d="M225,-215.7C225,-207.98 225,-198.71 225,-190.11"/>
<polygon fill="transparent" stroke="white" points="228.5,-190.1 225,-180.1 221.5,-190.1 228.5,-190.1"/>
</g>
<!-- Node(value=4, rank=0) -->
<g id="node3" class="node">
<title>Node(value=4, rank=0)</title>
<ellipse fill="none" stroke="red" cx="333" cy="-162" rx="27" ry="18"/>
<text text-anchor="middle" x="333" y="-158.3" font-family="'Cascadia Code PL', 'JetBrains Mono', 'Iosevka', 'Fira Code', 'Hack', monospace" font-size="14.00" fill="white">4</text>
</g>
<!-- nil6 -->
<g id="node12" class="node">
<title>nil6</title>
<ellipse fill="none" stroke="transparent" cx="315" cy="-90" rx="27" ry="18"/>
</g>
<!-- Node(value=4, rank=0)&#45;&gt;nil6 -->
<g id="edge11" class="edge">
<title>Node(value=4, rank=0)&#45;&gt;nil6</title>
<path fill="none" stroke="white" d="M328.64,-144.05C326.61,-136.14 324.14,-126.54 321.86,-117.69"/>
<polygon fill="transparent" stroke="white" points="325.2,-116.6 319.32,-107.79 318.42,-118.35 325.2,-116.6"/>
</g>
<!-- nil7 -->
<g id="node13" class="node">
<title>nil7</title>
<ellipse fill="none" stroke="transparent" cx="387" cy="-90" rx="27" ry="18"/>
</g>
<!-- Node(value=4, rank=0)&#45;&gt;nil7 -->
<g id="edge12" class="edge">
<title>Node(value=4, rank=0)&#45;&gt;nil7</title>
<path fill="none" stroke="white" d="M344.98,-145.46C351.98,-136.4 360.94,-124.79 368.79,-114.61"/>
<polygon fill="transparent" stroke="white" points="371.71,-116.55 375.05,-106.49 366.17,-112.27 371.71,-116.55"/>
</g>
<!-- Node(value=7, rank=0) -->
<g id="node4" class="node">
<title>Node(value=7, rank=0)</title>
<ellipse fill="none" stroke="red" cx="459" cy="-162" rx="27" ry="18"/>
<text text-anchor="middle" x="459" y="-158.3" font-family="'Cascadia Code PL', 'JetBrains Mono', 'Iosevka', 'Fira Code', 'Hack', monospace" font-size="14.00" fill="white">7</text>
</g>
<!-- nil8 -->
<g id="node14" class="node">
<title>nil8</title>
<ellipse fill="none" stroke="transparent" cx="459" cy="-90" rx="27" ry="18"/>
</g>
<!-- Node(value=7, rank=0)&#45;&gt;nil8 -->
<g id="edge13" class="edge">
<title>Node(value=7, rank=0)&#45;&gt;nil8</title>
<path fill="none" stroke="white" d="M459,-143.7C459,-135.98 459,-126.71 459,-118.11"/>
<polygon fill="transparent" stroke="white" points="462.5,-118.1 459,-108.1 455.5,-118.1 462.5,-118.1"/>
</g>
<!-- 8 -->
<g id="node17" class="node">
<title>8</title>
<ellipse fill="none" stroke="red" cx="531" cy="-90" rx="27" ry="18"/>
<text text-anchor="middle" x="531" y="-86.3" font-family="'Cascadia Code PL', 'JetBrains Mono', 'Iosevka', 'Fira Code', 'Hack', monospace" font-size="14.00" fill="white">8</text>
</g>
<!-- Node(value=7, rank=0)&#45;&gt;8 -->
<g id="edge14" class="edge">
<title>Node(value=7, rank=0)&#45;&gt;8</title>
<path fill="none" stroke="red" d="M473.57,-146.83C483.75,-136.94 497.52,-123.55 509.03,-112.36"/>
<polygon fill="transparent" stroke="red" points="511.47,-114.87 516.2,-105.38 506.59,-109.85 511.47,-114.87"/>
</g>
<!-- nil2 -->
<g id="node8" class="node">
<title>nil2</title>
<ellipse fill="none" stroke="transparent" cx="27" cy="-90" rx="27" ry="18"/>
</g>
<!-- Node(value=0, rank=0)&#45;&gt;nil2 -->
<g id="edge7" class="edge">
<title>Node(value=0, rank=0)&#45;&gt;nil2</title>
<path fill="none" stroke="white" d="M84.43,-146.83C74.25,-136.94 60.48,-123.55 48.97,-112.36"/>
<polygon fill="transparent" stroke="white" points="51.41,-109.85 41.8,-105.38 46.53,-114.87 51.41,-109.85"/>
</g>
<!-- nil3 -->
<g id="node9" class="node">
<title>nil3</title>
<ellipse fill="none" stroke="transparent" cx="99" cy="-90" rx="27" ry="18"/>
</g>
<!-- Node(value=0, rank=0)&#45;&gt;nil3 -->
<g id="edge8" class="edge">
<title>Node(value=0, rank=0)&#45;&gt;nil3</title>
<path fill="none" stroke="white" d="M99,-143.7C99,-135.98 99,-126.71 99,-118.11"/>
<polygon fill="transparent" stroke="white" points="102.5,-118.1 99,-108.1 95.5,-118.1 102.5,-118.1"/>
</g>
<!-- nil4 -->
<g id="node10" class="node">
<title>nil4</title>
<ellipse fill="none" stroke="transparent" cx="171" cy="-90" rx="27" ry="18"/>
</g>
<!-- Node(value=2, rank=0)&#45;&gt;nil4 -->
<g id="edge9" class="edge">
<title>Node(value=2, rank=0)&#45;&gt;nil4</title>
<path fill="none" stroke="white" d="M213.02,-145.46C206.02,-136.4 197.06,-124.79 189.21,-114.61"/>
<polygon fill="transparent" stroke="white" points="191.83,-112.27 182.95,-106.49 186.29,-116.55 191.83,-112.27"/>
</g>
<!-- nil5 -->
<g id="node11" class="node">
<title>nil5</title>
<ellipse fill="none" stroke="transparent" cx="243" cy="-90" rx="27" ry="18"/>
</g>
<!-- Node(value=2, rank=0)&#45;&gt;nil5 -->
<g id="edge10" class="edge">
<title>Node(value=2, rank=0)&#45;&gt;nil5</title>
<path fill="none" stroke="white" d="M229.36,-144.05C231.39,-136.14 233.86,-126.54 236.14,-117.69"/>
<polygon fill="transparent" stroke="white" points="239.58,-118.35 238.68,-107.79 232.8,-116.6 239.58,-118.35"/>
</g>
<!-- Node(value=5, rank=1)&#45;&gt;Node(value=4, rank=0) -->
<g id="edge5" class="edge">
<title>Node(value=5, rank=1)&#45;&gt;Node(value=4, rank=0)</title>
<path fill="none" stroke="white" d="M333,-215.7C333,-207.98 333,-198.71 333,-190.11"/>
<polygon fill="transparent" stroke="white" points="336.5,-190.1 333,-180.1 329.5,-190.1 336.5,-190.1"/>
</g>
<!-- Node(value=5, rank=1)&#45;&gt;Node(value=7, rank=0) -->
<g id="edge6" class="edge">
<title>Node(value=5, rank=1)&#45;&gt;Node(value=7, rank=0)</title>
<path fill="none" stroke="red" d="M353.24,-221.75C374,-210.22 406.48,-192.18 429.98,-179.12"/>
<polygon fill="transparent" stroke="red" points="431.76,-182.13 438.81,-174.22 428.36,-176.02 431.76,-182.13"/>
</g>
<!-- nil9 -->
<g id="node15" class="node">
<title>nil9</title>
<ellipse fill="none" stroke="transparent" cx="495" cy="-18" rx="27" ry="18"/>
</g>
<!-- nil10 -->
<g id="node16" class="node">
<title>nil10</title>
<ellipse fill="none" stroke="transparent" cx="567" cy="-18" rx="27" ry="18"/>
</g>
<!-- 8&#45;&gt;nil9 -->
<g id="edge15" class="edge">
<title>8&#45;&gt;nil9</title>
<path fill="none" stroke="white" d="M522.65,-72.76C518.29,-64.28 512.85,-53.71 507.96,-44.2"/>
<polygon fill="transparent" stroke="white" points="510.99,-42.44 503.3,-35.15 504.77,-45.64 510.99,-42.44"/>
</g>
<!-- 8&#45;&gt;nil10 -->
<g id="edge16" class="edge">
<title>8&#45;&gt;nil10</title>
<path fill="none" stroke="white" d="M539.35,-72.76C543.71,-64.28 549.15,-53.71 554.04,-44.2"/>
<polygon fill="transparent" stroke="white" points="557.23,-45.64 558.7,-35.15 551.01,-42.44 557.23,-45.64"/>
</g>
</g>
</svg>
