<?xml version="1.0" encoding="UTF-8" standalone="no"?>
<!DOCTYPE svg PUBLIC "-//W3C//DTD SVG 1.1//EN"
 "http://www.w3.org/Graphics/SVG/1.1/DTD/svg11.dtd">
<!-- Generated by graphviz version 12.2.1 (0)
 -->
<!-- Title: RBTree Pages: 1 -->
<svg width="476pt" height="332pt"
 viewBox="0.00 0.00 476.00 332.00" xmlns="http://www.w3.org/2000/svg" xmlns:xlink="http://www.w3.org/1999/xlink">
<g id="graph0" class="graph" transform="scale(1 1) rotate(0) translate(4 328)">
<title>RBTree</title>
<polygon fill="#1b1b1d" stroke="none" points="-4,4 -4,-328 472,-328 472,4 -4,4"/>
<!-- 140399805910672 -->
<g id="node1" class="node">
<title>140399805910672</title>
<ellipse fill="none" stroke="white" cx="207" cy="-306" rx="27" ry="18"/>
<text text-anchor="middle" x="207" y="-301.32" font-family="'Cascadia Code PL', 'JetBrains Mono', 'Iosevka', 'Fira Code', 'Hack', monospace" font-size="14.00" fill="white">9</text>
</g>
<!-- 140399804142928 -->
<g id="node2" class="node">
<title>140399804142928</title>
<ellipse fill="none" stroke="white" cx="171" cy="-234" rx="27" ry="18"/>
<text text-anchor="middle" x="171" y="-229.32" font-family="'Cascadia Code PL', 'JetBrains Mono', 'Iosevka', 'Fira Code', 'Hack', monospace" font-size="14.00" fill="white">5</text>
</g>
<!-- 140399805910672&#45;&gt;140399804142928 -->
<g id="edge1" class="edge">
<title>140399805910672&#45;&gt;140399804142928</title>
<path fill="none" stroke="white" d="M198.65,-288.76C194.42,-280.55 189.19,-270.37 184.42,-261.09"/>
<polygon fill="none" stroke="white" points="187.68,-259.79 180,-252.49 181.46,-262.99 187.68,-259.79"/>
</g>
<!-- 140399805605392 -->
<g id="node7" class="node">
<title>140399805605392</title>
<ellipse fill="none" stroke="red" cx="243" cy="-234" rx="27" ry="18"/>
<text text-anchor="middle" x="243" y="-229.32" font-family="'Cascadia Code PL', 'JetBrains Mono', 'Iosevka', 'Fira Code', 'Hack', monospace" font-size="14.00" fill="white">15</text>
</g>
<!-- 140399805910672&#45;&gt;140399805605392 -->
<g id="edge6" class="edge">
<title>140399805910672&#45;&gt;140399805605392</title>
<path fill="none" stroke="red" d="M215.35,-288.76C219.58,-280.55 224.81,-270.37 229.58,-261.09"/>
<polygon fill="none" stroke="red" points="232.54,-262.99 234,-252.49 226.32,-259.79 232.54,-262.99"/>
</g>
<!-- 140399805700304 -->
<g id="node3" class="node">
<title>140399805700304</title>
<ellipse fill="none" stroke="red" cx="99" cy="-162" rx="27" ry="18"/>
<text text-anchor="middle" x="99" y="-157.32" font-family="'Cascadia Code PL', 'JetBrains Mono', 'Iosevka', 'Fira Code', 'Hack', monospace" font-size="14.00" fill="white">2</text>
</g>
<!-- 140399804142928&#45;&gt;140399805700304 -->
<g id="edge2" class="edge">
<title>140399804142928&#45;&gt;140399805700304</title>
<path fill="none" stroke="red" d="M156.08,-218.5C146.23,-208.92 133.14,-196.19 121.97,-185.34"/>
<polygon fill="none" stroke="red" points="124.59,-183 114.98,-178.54 119.71,-188.02 124.59,-183"/>
</g>
<!-- R140399804142928 -->
<g id="node6" class="node">
<title>R140399804142928</title>
<ellipse fill="none" stroke="none" cx="171" cy="-162" rx="27" ry="18"/>
</g>
<!-- 140399804142928&#45;&gt;R140399804142928 -->
<g id="edge5" class="edge">
<title>140399804142928&#45;&gt;R140399804142928</title>
<path fill="none" stroke="white" d="M171,-215.7C171,-208.41 171,-199.73 171,-191.54"/>
<polygon fill="none" stroke="white" points="174.5,-191.62 171,-181.62 167.5,-191.62 174.5,-191.62"/>
</g>
<!-- L140399805700304 -->
<g id="node4" class="node">
<title>L140399805700304</title>
<ellipse fill="none" stroke="none" cx="27" cy="-90" rx="27" ry="18"/>
</g>
<!-- 140399805700304&#45;&gt;L140399805700304 -->
<g id="edge3" class="edge">
<title>140399805700304&#45;&gt;L140399805700304</title>
<path fill="none" stroke="white" d="M84.08,-146.5C74.23,-136.92 61.14,-124.19 49.97,-113.34"/>
<polygon fill="none" stroke="white" points="52.59,-111 42.98,-106.54 47.71,-116.02 52.59,-111"/>
</g>
<!-- R140399805700304 -->
<g id="node5" class="node">
<title>R140399805700304</title>
<ellipse fill="none" stroke="none" cx="99" cy="-90" rx="27" ry="18"/>
</g>
<!-- 140399805700304&#45;&gt;R140399805700304 -->
<g id="edge4" class="edge">
<title>140399805700304&#45;&gt;R140399805700304</title>
<path fill="none" stroke="white" d="M99,-143.7C99,-136.41 99,-127.73 99,-119.54"/>
<polygon fill="none" stroke="white" points="102.5,-119.62 99,-109.62 95.5,-119.62 102.5,-119.62"/>
</g>
<!-- 140399805603280 -->
<g id="node8" class="node">
<title>140399805603280</title>
<ellipse fill="none" stroke="white" cx="243" cy="-162" rx="27" ry="18"/>
<text text-anchor="middle" x="243" y="-157.32" font-family="'Cascadia Code PL', 'JetBrains Mono', 'Iosevka', 'Fira Code', 'Hack', monospace" font-size="14.00" fill="white">12</text>
</g>
<!-- 140399805605392&#45;&gt;140399805603280 -->
<g id="edge7" class="edge">
<title>140399805605392&#45;&gt;140399805603280</title>
<path fill="none" stroke="white" d="M243,-215.7C243,-208.41 243,-199.73 243,-191.54"/>
<polygon fill="none" stroke="white" points="246.5,-191.62 243,-181.62 239.5,-191.62 246.5,-191.62"/>
</g>
<!-- 140399805700368 -->
<g id="node13" class="node">
<title>140399805700368</title>
<ellipse fill="none" stroke="white" cx="315" cy="-162" rx="27" ry="18"/>
<text text-anchor="middle" x="315" y="-157.32" font-family="'Cascadia Code PL', 'JetBrains Mono', 'Iosevka', 'Fira Code', 'Hack', monospace" font-size="14.00" fill="white">18</text>
</g>
<!-- 140399805605392&#45;&gt;140399805700368 -->
<g id="edge12" class="edge">
<title>140399805605392&#45;&gt;140399805700368</title>
<path fill="none" stroke="white" d="M257.92,-218.5C267.77,-208.92 280.86,-196.19 292.03,-185.34"/>
<polygon fill="none" stroke="white" points="294.29,-188.02 299.02,-178.54 289.41,-183 294.29,-188.02"/>
</g>
<!-- L140399805603280 -->
<g id="node9" class="node">
<title>L140399805603280</title>
<ellipse fill="none" stroke="none" cx="171" cy="-90" rx="27" ry="18"/>
</g>
<!-- 140399805603280&#45;&gt;L140399805603280 -->
<g id="edge8" class="edge">
<title>140399805603280&#45;&gt;L140399805603280</title>
<path fill="none" stroke="white" d="M228.08,-146.5C218.23,-136.92 205.14,-124.19 193.97,-113.34"/>
<polygon fill="none" stroke="white" points="196.59,-111 186.98,-106.54 191.71,-116.02 196.59,-111"/>
</g>
<!-- 140399805605456 -->
<g id="node10" class="node">
<title>140399805605456</title>
<ellipse fill="none" stroke="red" cx="243" cy="-90" rx="27" ry="18"/>
<text text-anchor="middle" x="243" y="-85.33" font-family="'Cascadia Code PL', 'JetBrains Mono', 'Iosevka', 'Fira Code', 'Hack', monospace" font-size="14.00" fill="white">13</text>
</g>
<!-- 140399805603280&#45;&gt;140399805605456 -->
<g id="edge9" class="edge">
<title>140399805603280&#45;&gt;140399805605456</title>
<path fill="none" stroke="red" d="M243,-143.7C243,-136.41 243,-127.73 243,-119.54"/>
<polygon fill="none" stroke="red" points="246.5,-119.62 243,-109.62 239.5,-119.62 246.5,-119.62"/>
</g>
<!-- L140399805605456 -->
<g id="node11" class="node">
<title>L140399805605456</title>
<ellipse fill="none" stroke="none" cx="189" cy="-18" rx="27" ry="18"/>
</g>
<!-- 140399805605456&#45;&gt;L140399805605456 -->
<g id="edge10" class="edge">
<title>140399805605456&#45;&gt;L140399805605456</title>
<path fill="none" stroke="white" d="M231.02,-73.46C224.23,-64.67 215.6,-53.48 207.92,-43.53"/>
<polygon fill="none" stroke="white" points="210.75,-41.47 201.88,-35.69 205.21,-45.75 210.75,-41.47"/>
</g>
<!-- R140399805605456 -->
<g id="node12" class="node">
<title>R140399805605456</title>
<ellipse fill="none" stroke="none" cx="261" cy="-18" rx="27" ry="18"/>
</g>
<!-- 140399805605456&#45;&gt;R140399805605456 -->
<g id="edge11" class="edge">
<title>140399805605456&#45;&gt;R140399805605456</title>
<path fill="none" stroke="white" d="M247.36,-72.05C249.3,-64.49 251.65,-55.37 253.84,-46.85"/>
<polygon fill="none" stroke="white" points="257.21,-47.81 256.31,-37.25 250.43,-46.07 257.21,-47.81"/>
</g>
<!-- L140399805700368 -->
<g id="node14" class="node">
<title>L140399805700368</title>
<ellipse fill="none" stroke="none" cx="315" cy="-90" rx="27" ry="18"/>
</g>
<!-- 140399805700368&#45;&gt;L140399805700368 -->
<g id="edge13" class="edge">
<title>140399805700368&#45;&gt;L140399805700368</title>
<path fill="none" stroke="white" d="M315,-143.7C315,-136.41 315,-127.73 315,-119.54"/>
<polygon fill="none" stroke="white" points="318.5,-119.62 315,-109.62 311.5,-119.62 318.5,-119.62"/>
</g>
<!-- 140399805605584 -->
<g id="node15" class="node">
<title>140399805605584</title>
<ellipse fill="none" stroke="red" cx="387" cy="-90" rx="27" ry="18"/>
<text text-anchor="middle" x="387" y="-85.33" font-family="'Cascadia Code PL', 'JetBrains Mono', 'Iosevka', 'Fira Code', 'Hack', monospace" font-size="14.00" fill="white">19</text>
</g>
<!-- 140399805700368&#45;&gt;140399805605584 -->
<g id="edge14" class="edge">
<title>140399805700368&#45;&gt;140399805605584</title>
<path fill="none" stroke="red" d="M329.92,-146.5C339.77,-136.92 352.86,-124.19 364.03,-113.34"/>
<polygon fill="none" stroke="red" points="366.29,-116.02 371.02,-106.54 361.41,-111 366.29,-116.02"/>
</g>
<!-- L140399805605584 -->
<g id="node16" class="node">
<title>L140399805605584</title>
<ellipse fill="none" stroke="none" cx="369" cy="-18" rx="27" ry="18"/>
</g>
<!-- 140399805605584&#45;&gt;L140399805605584 -->
<g id="edge15" class="edge">
<title>140399805605584&#45;&gt;L140399805605584</title>
<path fill="none" stroke="white" d="M382.64,-72.05C380.7,-64.49 378.35,-55.37 376.16,-46.85"/>
<polygon fill="none" stroke="white" points="379.57,-46.07 373.69,-37.25 372.79,-47.81 379.57,-46.07"/>
</g>
<!-- R140399805605584 -->
<g id="node17" class="node">
<title>R140399805605584</title>
<ellipse fill="none" stroke="none" cx="441" cy="-18" rx="27" ry="18"/>
</g>
<!-- 140399805605584&#45;&gt;R140399805605584 -->
<g id="edge16" class="edge">
<title>140399805605584&#45;&gt;R140399805605584</title>
<path fill="none" stroke="white" d="M398.98,-73.46C405.77,-64.67 414.4,-53.48 422.08,-43.53"/>
<polygon fill="none" stroke="white" points="424.79,-45.75 428.12,-35.69 419.25,-41.47 424.79,-45.75"/>
</g>
</g>
</svg>
