<?xml version="1.0" encoding="UTF-8" standalone="no"?>
<!DOCTYPE svg PUBLIC "-//W3C//DTD SVG 1.1//EN"
 "http://www.w3.org/Graphics/SVG/1.1/DTD/svg11.dtd">
<!-- Generated by graphviz version 12.2.1 (0)
 -->
<!-- Title: RBTree Pages: 1 -->
<svg width="566pt" height="332pt"
 viewBox="0.00 0.00 566.00 332.00" xmlns="http://www.w3.org/2000/svg" xmlns:xlink="http://www.w3.org/1999/xlink">
<g id="graph0" class="graph" transform="scale(1 1) rotate(0) translate(4 328)">
<title>RBTree</title>
<polygon fill="white" stroke="none" points="-4,4 -4,-328 562,-328 562,4 -4,4"/>
<!-- 140399805910672 -->
<g id="node1" class="node">
<title>140399805910672</title>
<ellipse fill="none" stroke="black" cx="207" cy="-306" rx="27" ry="18"/>
<text text-anchor="middle" x="207" y="-301.32" font-family="'Cascadia Code PL', 'JetBrains Mono', 'Iosevka', 'Fira Code', 'Hack', monospace" font-size="14.00">9</text>
</g>
<!-- 140399804142928 -->
<g id="node2" class="node">
<title>140399804142928</title>
<ellipse fill="none" stroke="black" cx="171" cy="-234" rx="27" ry="18"/>
<text text-anchor="middle" x="171" y="-229.32" font-family="'Cascadia Code PL', 'JetBrains Mono', 'Iosevka', 'Fira Code', 'Hack', monospace" font-size="14.00">5</text>
</g>
<!-- 140399805910672&#45;&gt;140399804142928 -->
<g id="edge1" class="edge">
<title>140399805910672&#45;&gt;140399804142928</title>
<path fill="none" stroke="black" d="M198.65,-288.76C194.42,-280.55 189.19,-270.37 184.42,-261.09"/>
<polygon fill="black" stroke="black" points="187.68,-259.79 180,-252.49 181.46,-262.99 187.68,-259.79"/>
</g>
<!-- 140399805605392 -->
<g id="node7" class="node">
<title>140399805605392</title>
<ellipse fill="none" stroke="red" cx="243" cy="-234" rx="27" ry="18"/>
<text text-anchor="middle" x="243" y="-229.32" font-family="'Cascadia Code PL', 'JetBrains Mono', 'Iosevka', 'Fira Code', 'Hack', monospace" font-size="14.00">15</text>
</g>
<!-- 140399805910672&#45;&gt;140399805605392 -->
<g id="edge6" class="edge">
<title>140399805910672&#45;&gt;140399805605392</title>
<path fill="none" stroke="red" d="M215.35,-288.76C219.58,-280.55 224.81,-270.37 229.58,-261.09"/>
<polygon fill="red" stroke="red" points="232.54,-262.99 234,-252.49 226.32,-259.79 232.54,-262.99"/>
</g>
<!-- 140399805700304 -->
<g id="node3" class="node">
<title>140399805700304</title>
<ellipse fill="none" stroke="red" cx="99" cy="-162" rx="27" ry="18"/>
<text text-anchor="middle" x="99" y="-157.32" font-family="'Cascadia Code PL', 'JetBrains Mono', 'Iosevka', 'Fira Code', 'Hack', monospace" font-size="14.00">2</text>
</g>
<!-- 140399804142928&#45;&gt;140399805700304 -->
<g id="edge2" class="edge">
<title>140399804142928&#45;&gt;140399805700304</title>
<path fill="none" stroke="red" d="M156.08,-218.5C146.23,-208.92 133.14,-196.19 121.97,-185.34"/>
<polygon fill="red" stroke="red" points="124.59,-183 114.98,-178.54 119.71,-188.02 124.59,-183"/>
</g>
<!-- R140399804142928 -->
<g id="node6" class="node">
<title>R140399804142928</title>
<ellipse fill="none" stroke="none" cx="171" cy="-162" rx="27" ry="18"/>
</g>
<!-- 140399804142928&#45;&gt;R140399804142928 -->
<g id="edge5" class="edge">
<title>140399804142928&#45;&gt;R140399804142928</title>
<path fill="none" stroke="black" d="M171,-215.7C171,-208.41 171,-199.73 171,-191.54"/>
<polygon fill="black" stroke="black" points="174.5,-191.62 171,-181.62 167.5,-191.62 174.5,-191.62"/>
</g>
<!-- L140399805700304 -->
<g id="node4" class="node">
<title>L140399805700304</title>
<ellipse fill="none" stroke="none" cx="27" cy="-90" rx="27" ry="18"/>
</g>
<!-- 140399805700304&#45;&gt;L140399805700304 -->
<g id="edge3" class="edge">
<title>140399805700304&#45;&gt;L140399805700304</title>
<path fill="none" stroke="black" d="M84.08,-146.5C74.23,-136.92 61.14,-124.19 49.97,-113.34"/>
<polygon fill="black" stroke="black" points="52.59,-111 42.98,-106.54 47.71,-116.02 52.59,-111"/>
</g>
<!-- R140399805700304 -->
<g id="node5" class="node">
<title>R140399805700304</title>
<ellipse fill="none" stroke="none" cx="99" cy="-90" rx="27" ry="18"/>
</g>
<!-- 140399805700304&#45;&gt;R140399805700304 -->
<g id="edge4" class="edge">
<title>140399805700304&#45;&gt;R140399805700304</title>
<path fill="none" stroke="black" d="M99,-143.7C99,-136.41 99,-127.73 99,-119.54"/>
<polygon fill="black" stroke="black" points="102.5,-119.62 99,-109.62 95.5,-119.62 102.5,-119.62"/>
</g>
<!-- 140399805603280 -->
<g id="node8" class="node">
<title>140399805603280</title>
<ellipse fill="none" stroke="black" cx="243" cy="-162" rx="27" ry="18"/>
<text text-anchor="middle" x="243" y="-157.32" font-family="'Cascadia Code PL', 'JetBrains Mono', 'Iosevka', 'Fira Code', 'Hack', monospace" font-size="14.00">12</text>
</g>
<!-- 140399805605392&#45;&gt;140399805603280 -->
<g id="edge7" class="edge">
<title>140399805605392&#45;&gt;140399805603280</title>
<path fill="none" stroke="black" d="M243,-215.7C243,-208.41 243,-199.73 243,-191.54"/>
<polygon fill="black" stroke="black" points="246.5,-191.62 243,-181.62 239.5,-191.62 246.5,-191.62"/>
</g>
<!-- 140399805700368 -->
<g id="node13" class="node">
<title>140399805700368</title>
<ellipse fill="none" stroke="black" cx="351" cy="-162" rx="27" ry="18"/>
<text text-anchor="middle" x="351" y="-157.32" font-family="'Cascadia Code PL', 'JetBrains Mono', 'Iosevka', 'Fira Code', 'Hack', monospace" font-size="14.00">18</text>
</g>
<!-- 140399805605392&#45;&gt;140399805700368 -->
<g id="edge12" class="edge">
<title>140399805605392&#45;&gt;140399805700368</title>
<path fill="none" stroke="black" d="M261.81,-220.81C278.59,-209.93 303.39,-193.86 322.59,-181.42"/>
<polygon fill="black" stroke="black" points="324.28,-184.49 330.77,-176.11 320.48,-178.61 324.28,-184.49"/>
</g>
<!-- L140399805603280 -->
<g id="node9" class="node">
<title>L140399805603280</title>
<ellipse fill="none" stroke="none" cx="171" cy="-90" rx="27" ry="18"/>
</g>
<!-- 140399805603280&#45;&gt;L140399805603280 -->
<g id="edge8" class="edge">
<title>140399805603280&#45;&gt;L140399805603280</title>
<path fill="none" stroke="black" d="M228.08,-146.5C218.23,-136.92 205.14,-124.19 193.97,-113.34"/>
<polygon fill="black" stroke="black" points="196.59,-111 186.98,-106.54 191.71,-116.02 196.59,-111"/>
</g>
<!-- 140399805605456 -->
<g id="node10" class="node">
<title>140399805605456</title>
<ellipse fill="none" stroke="red" cx="243" cy="-90" rx="27" ry="18"/>
<text text-anchor="middle" x="243" y="-85.33" font-family="'Cascadia Code PL', 'JetBrains Mono', 'Iosevka', 'Fira Code', 'Hack', monospace" font-size="14.00">13</text>
</g>
<!-- 140399805603280&#45;&gt;140399805605456 -->
<g id="edge9" class="edge">
<title>140399805603280&#45;&gt;140399805605456</title>
<path fill="none" stroke="red" d="M243,-143.7C243,-136.41 243,-127.73 243,-119.54"/>
<polygon fill="red" stroke="red" points="246.5,-119.62 243,-109.62 239.5,-119.62 246.5,-119.62"/>
</g>
<!-- L140399805605456 -->
<g id="node11" class="node">
<title>L140399805605456</title>
<ellipse fill="none" stroke="none" cx="171" cy="-18" rx="27" ry="18"/>
</g>
<!-- 140399805605456&#45;&gt;L140399805605456 -->
<g id="edge10" class="edge">
<title>140399805605456&#45;&gt;L140399805605456</title>
<path fill="none" stroke="black" d="M228.08,-74.5C218.23,-64.92 205.14,-52.19 193.97,-41.34"/>
<polygon fill="black" stroke="black" points="196.59,-39 186.98,-34.54 191.71,-44.02 196.59,-39"/>
</g>
<!-- R140399805605456 -->
<g id="node12" class="node">
<title>R140399805605456</title>
<ellipse fill="none" stroke="none" cx="243" cy="-18" rx="27" ry="18"/>
</g>
<!-- 140399805605456&#45;&gt;R140399805605456 -->
<g id="edge11" class="edge">
<title>140399805605456&#45;&gt;R140399805605456</title>
<path fill="none" stroke="black" d="M243,-71.7C243,-64.41 243,-55.73 243,-47.54"/>
<polygon fill="black" stroke="black" points="246.5,-47.62 243,-37.62 239.5,-47.62 246.5,-47.62"/>
</g>
<!-- 140399804318928 -->
<g id="node14" class="node">
<title>140399804318928</title>
<ellipse fill="none" stroke="red" cx="351" cy="-90" rx="27" ry="18"/>
<text text-anchor="middle" x="351" y="-85.33" font-family="'Cascadia Code PL', 'JetBrains Mono', 'Iosevka', 'Fira Code', 'Hack', monospace" font-size="14.00">17</text>
</g>
<!-- 140399805700368&#45;&gt;140399804318928 -->
<g id="edge13" class="edge">
<title>140399805700368&#45;&gt;140399804318928</title>
<path fill="none" stroke="red" d="M351,-143.7C351,-136.41 351,-127.73 351,-119.54"/>
<polygon fill="red" stroke="red" points="354.5,-119.62 351,-109.62 347.5,-119.62 354.5,-119.62"/>
</g>
<!-- 140399805605584 -->
<g id="node17" class="node">
<title>140399805605584</title>
<ellipse fill="none" stroke="red" cx="459" cy="-90" rx="27" ry="18"/>
<text text-anchor="middle" x="459" y="-85.33" font-family="'Cascadia Code PL', 'JetBrains Mono', 'Iosevka', 'Fira Code', 'Hack', monospace" font-size="14.00">19</text>
</g>
<!-- 140399805700368&#45;&gt;140399805605584 -->
<g id="edge16" class="edge">
<title>140399805700368&#45;&gt;140399805605584</title>
<path fill="none" stroke="red" d="M369.81,-148.81C386.59,-137.93 411.39,-121.86 430.59,-109.42"/>
<polygon fill="red" stroke="red" points="432.28,-112.49 438.77,-104.11 428.48,-106.61 432.28,-112.49"/>
</g>
<!-- L140399804318928 -->
<g id="node15" class="node">
<title>L140399804318928</title>
<ellipse fill="none" stroke="none" cx="315" cy="-18" rx="27" ry="18"/>
</g>
<!-- 140399804318928&#45;&gt;L140399804318928 -->
<g id="edge14" class="edge">
<title>140399804318928&#45;&gt;L140399804318928</title>
<path fill="none" stroke="black" d="M342.65,-72.76C338.42,-64.55 333.19,-54.37 328.42,-45.09"/>
<polygon fill="black" stroke="black" points="331.68,-43.79 324,-36.49 325.46,-46.99 331.68,-43.79"/>
</g>
<!-- R140399804318928 -->
<g id="node16" class="node">
<title>R140399804318928</title>
<ellipse fill="none" stroke="none" cx="387" cy="-18" rx="27" ry="18"/>
</g>
<!-- 140399804318928&#45;&gt;R140399804318928 -->
<g id="edge15" class="edge">
<title>140399804318928&#45;&gt;R140399804318928</title>
<path fill="none" stroke="black" d="M359.35,-72.76C363.58,-64.55 368.81,-54.37 373.58,-45.09"/>
<polygon fill="black" stroke="black" points="376.54,-46.99 378,-36.49 370.32,-43.79 376.54,-46.99"/>
</g>
<!-- L140399805605584 -->
<g id="node18" class="node">
<title>L140399805605584</title>
<ellipse fill="none" stroke="none" cx="459" cy="-18" rx="27" ry="18"/>
</g>
<!-- 140399805605584&#45;&gt;L140399805605584 -->
<g id="edge17" class="edge">
<title>140399805605584&#45;&gt;L140399805605584</title>
<path fill="none" stroke="black" d="M459,-71.7C459,-64.41 459,-55.73 459,-47.54"/>
<polygon fill="black" stroke="black" points="462.5,-47.62 459,-37.62 455.5,-47.62 462.5,-47.62"/>
</g>
<!-- R140399805605584 -->
<g id="node19" class="node">
<title>R140399805605584</title>
<ellipse fill="none" stroke="none" cx="531" cy="-18" rx="27" ry="18"/>
</g>
<!-- 140399805605584&#45;&gt;R140399805605584 -->
<g id="edge18" class="edge">
<title>140399805605584&#45;&gt;R140399805605584</title>
<path fill="none" stroke="black" d="M473.92,-74.5C483.77,-64.92 496.86,-52.19 508.03,-41.34"/>
<polygon fill="black" stroke="black" points="510.29,-44.02 515.02,-34.54 505.41,-39 510.29,-44.02"/>
</g>
</g>
</svg>
