<?xml version="1.0" encoding="UTF-8" standalone="no"?>
<!DOCTYPE svg PUBLIC "-//W3C//DTD SVG 1.1//EN"
 "http://www.w3.org/Graphics/SVG/1.1/DTD/svg11.dtd">
<!-- Generated by graphviz version 12.2.1 (0)
 -->
<!-- Title: G Pages: 1 -->
<svg width="638pt" height="209pt"
 viewBox="0.00 0.00 638.00 209.25" xmlns="http://www.w3.org/2000/svg" xmlns:xlink="http://www.w3.org/1999/xlink">
<g id="graph0" class="graph" transform="scale(1 1) rotate(0) translate(4 205.25)">
<title>G</title>
<polygon fill="white" stroke="none" points="-4,4 -4,-205.25 634,-205.25 634,4 -4,4"/>
<!-- a_node -->
<g id="node1" class="node">
<title>a_node</title>
<polygon fill="none" stroke="black" points="205.88,-164.75 205.88,-200.75 424.12,-200.75 424.12,-164.75 205.88,-164.75"/>
<text text-anchor="middle" x="218" y="-178.07" font-family="'Cascadia Code PL', 'JetBrains Mono', 'Iosevka', 'Fira Code', 'Hack', monospace" font-size="14.00">1</text>
<polyline fill="none" stroke="black" points="230.12,-164.75 230.12,-200.75"/>
<text text-anchor="middle" x="242.25" y="-178.07" font-family="'Cascadia Code PL', 'JetBrains Mono', 'Iosevka', 'Fira Code', 'Hack', monospace" font-size="14.00">2</text>
<polyline fill="none" stroke="black" points="254.38,-164.75 254.38,-200.75"/>
<text text-anchor="middle" x="266.5" y="-178.07" font-family="'Cascadia Code PL', 'JetBrains Mono', 'Iosevka', 'Fira Code', 'Hack', monospace" font-size="14.00">3</text>
<polyline fill="none" stroke="black" points="278.62,-164.75 278.62,-200.75"/>
<text text-anchor="middle" x="290.75" y="-178.07" font-family="'Cascadia Code PL', 'JetBrains Mono', 'Iosevka', 'Fira Code', 'Hack', monospace" font-size="14.00">4</text>
<polyline fill="none" stroke="black" points="302.88,-164.75 302.88,-200.75"/>
<text text-anchor="middle" x="315" y="-178.07" font-family="'Cascadia Code PL', 'JetBrains Mono', 'Iosevka', 'Fira Code', 'Hack', monospace" font-size="14.00">5</text>
<polyline fill="none" stroke="black" points="327.12,-164.75 327.12,-200.75"/>
<text text-anchor="middle" x="339.25" y="-178.07" font-family="'Cascadia Code PL', 'JetBrains Mono', 'Iosevka', 'Fira Code', 'Hack', monospace" font-size="14.00">6</text>
<polyline fill="none" stroke="black" points="351.38,-164.75 351.38,-200.75"/>
<text text-anchor="middle" x="363.5" y="-178.07" font-family="'Cascadia Code PL', 'JetBrains Mono', 'Iosevka', 'Fira Code', 'Hack', monospace" font-size="14.00">7</text>
<polyline fill="none" stroke="black" points="375.62,-164.75 375.62,-200.75"/>
<text text-anchor="middle" x="387.75" y="-178.07" font-family="'Cascadia Code PL', 'JetBrains Mono', 'Iosevka', 'Fira Code', 'Hack', monospace" font-size="14.00">8</text>
<polyline fill="none" stroke="black" points="399.88,-164.75 399.88,-200.75"/>
<text text-anchor="middle" x="412" y="-178.07" font-family="'Cascadia Code PL', 'JetBrains Mono', 'Iosevka', 'Fira Code', 'Hack', monospace" font-size="14.00">9</text>
</g>
<!-- b_node -->
<g id="node2" class="node">
<title>b_node</title>
<polygon fill="none" stroke="black" points="98.62,-74.5 98.62,-110.5 171.38,-110.5 171.38,-74.5 98.62,-74.5"/>
<text text-anchor="middle" x="110.75" y="-87.83" font-family="'Cascadia Code PL', 'JetBrains Mono', 'Iosevka', 'Fira Code', 'Hack', monospace" font-size="14.00">1</text>
<polyline fill="none" stroke="black" points="122.88,-74.5 122.88,-110.5"/>
<text text-anchor="middle" x="135" y="-87.83" font-family="'Cascadia Code PL', 'JetBrains Mono', 'Iosevka', 'Fira Code', 'Hack', monospace" font-size="14.00">2</text>
<polyline fill="none" stroke="black" points="147.12,-74.5 147.12,-110.5"/>
<text text-anchor="middle" x="159.25" y="-87.83" font-family="'Cascadia Code PL', 'JetBrains Mono', 'Iosevka', 'Fira Code', 'Hack', monospace" font-size="14.00">3</text>
</g>
<!-- a_node&#45;&gt;b_node -->
<g id="edge1" class="edge">
<title>a_node&#45;&gt;b_node</title>
<path fill="none" stroke="black" d="M279.44,-164.31C251.09,-150.41 211.19,-130.85 180.51,-115.81"/>
<polygon fill="black" stroke="black" points="182.37,-112.83 171.85,-111.57 179.29,-119.11 182.37,-112.83"/>
<text text-anchor="middle" x="245.25" y="-132.95" font-family="'Cascadia Code PL', 'JetBrains Mono', 'Iosevka', 'Fira Code', 'Hack', monospace" font-size="14.00">B</text>
</g>
<!-- c_node -->
<g id="node3" class="node">
<title>c_node</title>
<polygon fill="none" stroke="black" points="278.62,-74.5 278.62,-110.5 351.38,-110.5 351.38,-74.5 278.62,-74.5"/>
<text text-anchor="middle" x="290.75" y="-87.83" font-family="'Cascadia Code PL', 'JetBrains Mono', 'Iosevka', 'Fira Code', 'Hack', monospace" font-size="14.00">4</text>
<polyline fill="none" stroke="black" points="302.88,-74.5 302.88,-110.5"/>
<text text-anchor="middle" x="315" y="-87.83" font-family="'Cascadia Code PL', 'JetBrains Mono', 'Iosevka', 'Fira Code', 'Hack', monospace" font-size="14.00">5</text>
<polyline fill="none" stroke="black" points="327.12,-74.5 327.12,-110.5"/>
<text text-anchor="middle" x="339.25" y="-87.83" font-family="'Cascadia Code PL', 'JetBrains Mono', 'Iosevka', 'Fira Code', 'Hack', monospace" font-size="14.00">6</text>
</g>
<!-- a_node&#45;&gt;c_node -->
<g id="edge2" class="edge">
<title>a_node&#45;&gt;c_node</title>
<path fill="none" stroke="black" d="M315,-164.31C315,-152.35 315,-136.19 315,-122.33"/>
<polygon fill="black" stroke="black" points="318.5,-122.41 315,-112.41 311.5,-122.41 318.5,-122.41"/>
<text text-anchor="middle" x="319.12" y="-132.95" font-family="'Cascadia Code PL', 'JetBrains Mono', 'Iosevka', 'Fira Code', 'Hack', monospace" font-size="14.00">C</text>
</g>
<!-- d_node -->
<g id="node4" class="node">
<title>d_node</title>
<polygon fill="none" stroke="black" points="458.62,-74.5 458.62,-110.5 531.38,-110.5 531.38,-74.5 458.62,-74.5"/>
<text text-anchor="middle" x="470.75" y="-87.83" font-family="'Cascadia Code PL', 'JetBrains Mono', 'Iosevka', 'Fira Code', 'Hack', monospace" font-size="14.00">7</text>
<polyline fill="none" stroke="black" points="482.88,-74.5 482.88,-110.5"/>
<text text-anchor="middle" x="495" y="-87.83" font-family="'Cascadia Code PL', 'JetBrains Mono', 'Iosevka', 'Fira Code', 'Hack', monospace" font-size="14.00">8</text>
<polyline fill="none" stroke="black" points="507.12,-74.5 507.12,-110.5"/>
<text text-anchor="middle" x="519.25" y="-87.83" font-family="'Cascadia Code PL', 'JetBrains Mono', 'Iosevka', 'Fira Code', 'Hack', monospace" font-size="14.00">9</text>
</g>
<!-- a_node&#45;&gt;d_node -->
<g id="edge3" class="edge">
<title>a_node&#45;&gt;d_node</title>
<path fill="none" stroke="black" d="M350.56,-164.31C378.91,-150.41 418.81,-130.85 449.49,-115.81"/>
<polygon fill="black" stroke="black" points="450.71,-119.11 458.15,-111.57 447.63,-112.83 450.71,-119.11"/>
<text text-anchor="middle" x="425.25" y="-132.95" font-family="'Cascadia Code PL', 'JetBrains Mono', 'Iosevka', 'Fira Code', 'Hack', monospace" font-size="14.00">D</text>
</g>
<!-- 1 -->
<g id="node5" class="node">
<title>1</title>
<polygon fill="none" stroke="black" points="0,-0.5 0,-36.5 54,-36.5 54,-0.5 0,-0.5"/>
<text text-anchor="middle" x="26.62" y="-13.82" font-family="'Cascadia Code PL', 'JetBrains Mono', 'Iosevka', 'Fira Code', 'Hack', monospace" font-size="14.00">1</text>
</g>
<!-- b_node&#45;&gt;1 -->
<g id="edge4" class="edge">
<title>b_node&#45;&gt;1</title>
<path fill="none" stroke="black" d="M108.86,-74.07C94.93,-64.78 77.59,-53.23 62.47,-43.14"/>
<polygon fill="black" stroke="black" points="64.42,-40.24 54.16,-37.61 60.54,-46.07 64.42,-40.24"/>
</g>
<!-- 2 -->
<g id="node6" class="node">
<title>2</title>
<polygon fill="none" stroke="black" points="72,-0.5 72,-36.5 126,-36.5 126,-0.5 72,-0.5"/>
<text text-anchor="middle" x="98.62" y="-13.82" font-family="'Cascadia Code PL', 'JetBrains Mono', 'Iosevka', 'Fira Code', 'Hack', monospace" font-size="14.00">2</text>
</g>
<!-- b_node&#45;&gt;2 -->
<g id="edge5" class="edge">
<title>b_node&#45;&gt;2</title>
<path fill="none" stroke="black" d="M126.29,-74.07C122.22,-65.93 117.28,-56.06 112.73,-46.95"/>
<polygon fill="black" stroke="black" points="115.91,-45.5 108.31,-38.12 109.65,-48.63 115.91,-45.5"/>
</g>
<!-- 3 -->
<g id="node7" class="node">
<title>3</title>
<polygon fill="none" stroke="black" points="144,-0.5 144,-36.5 198,-36.5 198,-0.5 144,-0.5"/>
<text text-anchor="middle" x="170.62" y="-13.82" font-family="'Cascadia Code PL', 'JetBrains Mono', 'Iosevka', 'Fira Code', 'Hack', monospace" font-size="14.00">3</text>
</g>
<!-- b_node&#45;&gt;3 -->
<g id="edge6" class="edge">
<title>b_node&#45;&gt;3</title>
<path fill="none" stroke="black" d="M143.71,-74.07C147.78,-65.93 152.72,-56.06 157.27,-46.95"/>
<polygon fill="black" stroke="black" points="160.35,-48.63 161.69,-38.12 154.09,-45.5 160.35,-48.63"/>
</g>
<!-- 4 -->
<g id="node8" class="node">
<title>4</title>
<polygon fill="none" stroke="black" points="216,-0.5 216,-36.5 270,-36.5 270,-0.5 216,-0.5"/>
<text text-anchor="middle" x="242.62" y="-13.82" font-family="'Cascadia Code PL', 'JetBrains Mono', 'Iosevka', 'Fira Code', 'Hack', monospace" font-size="14.00">4</text>
</g>
<!-- c_node&#45;&gt;4 -->
<g id="edge7" class="edge">
<title>c_node&#45;&gt;4</title>
<path fill="none" stroke="black" d="M297.57,-74.07C288.82,-65.32 278.04,-54.54 268.39,-44.89"/>
<polygon fill="black" stroke="black" points="270.88,-42.44 261.34,-37.84 265.94,-47.38 270.88,-42.44"/>
</g>
<!-- 5 -->
<g id="node9" class="node">
<title>5</title>
<polygon fill="none" stroke="black" points="288,-0.5 288,-36.5 342,-36.5 342,-0.5 288,-0.5"/>
<text text-anchor="middle" x="314.62" y="-13.82" font-family="'Cascadia Code PL', 'JetBrains Mono', 'Iosevka', 'Fira Code', 'Hack', monospace" font-size="14.00">5</text>
</g>
<!-- c_node&#45;&gt;5 -->
<g id="edge8" class="edge">
<title>c_node&#45;&gt;5</title>
<path fill="none" stroke="black" d="M315,-74.07C315,-66.29 315,-56.91 315,-48.14"/>
<polygon fill="black" stroke="black" points="318.5,-48.28 315,-38.28 311.5,-48.28 318.5,-48.28"/>
</g>
<!-- 6 -->
<g id="node10" class="node">
<title>6</title>
<polygon fill="none" stroke="black" points="360,-0.5 360,-36.5 414,-36.5 414,-0.5 360,-0.5"/>
<text text-anchor="middle" x="386.62" y="-13.82" font-family="'Cascadia Code PL', 'JetBrains Mono', 'Iosevka', 'Fira Code', 'Hack', monospace" font-size="14.00">6</text>
</g>
<!-- c_node&#45;&gt;6 -->
<g id="edge9" class="edge">
<title>c_node&#45;&gt;6</title>
<path fill="none" stroke="black" d="M332.43,-74.07C341.18,-65.32 351.96,-54.54 361.61,-44.89"/>
<polygon fill="black" stroke="black" points="364.06,-47.38 368.66,-37.84 359.12,-42.44 364.06,-47.38"/>
</g>
<!-- 7 -->
<g id="node11" class="node">
<title>7</title>
<polygon fill="none" stroke="black" points="432,-0.5 432,-36.5 486,-36.5 486,-0.5 432,-0.5"/>
<text text-anchor="middle" x="458.62" y="-13.82" font-family="'Cascadia Code PL', 'JetBrains Mono', 'Iosevka', 'Fira Code', 'Hack', monospace" font-size="14.00">7</text>
</g>
<!-- d_node&#45;&gt;7 -->
<g id="edge10" class="edge">
<title>d_node&#45;&gt;7</title>
<path fill="none" stroke="black" d="M486.29,-74.07C482.22,-65.93 477.28,-56.06 472.73,-46.95"/>
<polygon fill="black" stroke="black" points="475.91,-45.5 468.31,-38.12 469.65,-48.63 475.91,-45.5"/>
</g>
<!-- 8 -->
<g id="node12" class="node">
<title>8</title>
<polygon fill="none" stroke="black" points="504,-0.5 504,-36.5 558,-36.5 558,-0.5 504,-0.5"/>
<text text-anchor="middle" x="530.62" y="-13.82" font-family="'Cascadia Code PL', 'JetBrains Mono', 'Iosevka', 'Fira Code', 'Hack', monospace" font-size="14.00">8</text>
</g>
<!-- d_node&#45;&gt;8 -->
<g id="edge11" class="edge">
<title>d_node&#45;&gt;8</title>
<path fill="none" stroke="black" d="M503.71,-74.07C507.78,-65.93 512.72,-56.06 517.27,-46.95"/>
<polygon fill="black" stroke="black" points="520.35,-48.63 521.69,-38.12 514.09,-45.5 520.35,-48.63"/>
</g>
<!-- 9 -->
<g id="node13" class="node">
<title>9</title>
<polygon fill="none" stroke="black" points="576,-0.5 576,-36.5 630,-36.5 630,-0.5 576,-0.5"/>
<text text-anchor="middle" x="602.62" y="-13.82" font-family="'Cascadia Code PL', 'JetBrains Mono', 'Iosevka', 'Fira Code', 'Hack', monospace" font-size="14.00">9</text>
</g>
<!-- d_node&#45;&gt;9 -->
<g id="edge12" class="edge">
<title>d_node&#45;&gt;9</title>
<path fill="none" stroke="black" d="M521.14,-74.07C535.07,-64.78 552.41,-53.23 567.53,-43.14"/>
<polygon fill="black" stroke="black" points="569.46,-46.07 575.84,-37.61 565.58,-40.24 569.46,-46.07"/>
</g>
</g>
</svg>
