<?xml version="1.0" encoding="UTF-8" standalone="no"?>
<!DOCTYPE svg PUBLIC "-//W3C//DTD SVG 1.1//EN"
 "http://www.w3.org/Graphics/SVG/1.1/DTD/svg11.dtd">
<!-- Generated by graphviz version 12.2.1 (0)
 -->
<!-- Pages: 1 -->
<svg width="700pt" height="404pt"
 viewBox="0.00 0.00 700.17 404.00" xmlns="http://www.w3.org/2000/svg" xmlns:xlink="http://www.w3.org/1999/xlink">
<g id="graph0" class="graph" transform="scale(1 1) rotate(0) translate(4 400)">
<polygon fill="#1b1b1d" stroke="none" points="-4,4 -4,-400 696.17,-400 696.17,4 -4,4"/>
<!-- Node(value=3, rank=2) -->
<g id="node1" class="node">
<title>Node(value=3, rank=2)</title>
<ellipse fill="none" stroke="white" cx="290.59" cy="-378" rx="27" ry="18"/>
<text text-anchor="middle" x="290.59" y="-373.32" font-family="'Cascadia Code PL', 'JetBrains Mono', 'Iosevka', 'Fira Code', 'Hack', monospace" font-size="14.00" fill="white">3</text>
</g>
<!-- Node(value=1, rank=1) -->
<g id="node2" class="node">
<title>Node(value=1, rank=1)</title>
<ellipse fill="none" stroke="white" cx="215.59" cy="-306" rx="27" ry="18"/>
<text text-anchor="middle" x="215.59" y="-301.32" font-family="'Cascadia Code PL', 'JetBrains Mono', 'Iosevka', 'Fira Code', 'Hack', monospace" font-size="14.00" fill="white">1</text>
</g>
<!-- Node(value=3, rank=2)&#45;&gt;Node(value=1, rank=1) -->
<g id="edge1" class="edge">
<title>Node(value=3, rank=2)&#45;&gt;Node(value=1, rank=1)</title>
<path fill="none" stroke="white" d="M275.41,-362.83C264.94,-353.06 250.82,-339.88 238.92,-328.78"/>
<polygon fill="none" stroke="white" points="241.55,-326.44 231.85,-322.18 236.77,-331.56 241.55,-326.44"/>
</g>
<!-- Node(value=5, rank=1) -->
<g id="node7" class="node">
<title>Node(value=5, rank=1)</title>
<ellipse fill="none" stroke="white" cx="365.59" cy="-306" rx="27" ry="18"/>
<text text-anchor="middle" x="365.59" y="-301.32" font-family="'Cascadia Code PL', 'JetBrains Mono', 'Iosevka', 'Fira Code', 'Hack', monospace" font-size="14.00" fill="white">5</text>
</g>
<!-- Node(value=3, rank=2)&#45;&gt;Node(value=5, rank=1) -->
<g id="edge4" class="edge">
<title>Node(value=3, rank=2)&#45;&gt;Node(value=5, rank=1)</title>
<path fill="none" stroke="white" d="M305.76,-362.83C316.23,-353.06 330.35,-339.88 342.25,-328.78"/>
<polygon fill="none" stroke="white" points="344.4,-331.56 349.32,-322.18 339.63,-326.44 344.4,-331.56"/>
</g>
<!-- Node(value=0, rank=0) -->
<g id="node5" class="node">
<title>Node(value=0, rank=0)</title>
<ellipse fill="none" stroke="white" cx="103.59" cy="-234" rx="27" ry="18"/>
<text text-anchor="middle" x="103.59" y="-229.32" font-family="'Cascadia Code PL', 'JetBrains Mono', 'Iosevka', 'Fira Code', 'Hack', monospace" font-size="14.00" fill="white">0</text>
</g>
<!-- Node(value=1, rank=1)&#45;&gt;Node(value=0, rank=0) -->
<g id="edge2" class="edge">
<title>Node(value=1, rank=1)&#45;&gt;Node(value=0, rank=0)</title>
<path fill="none" stroke="white" d="M196.33,-292.97C178.78,-282 152.61,-265.64 132.54,-253.1"/>
<polygon fill="none" stroke="white" points="134.58,-250.24 124.25,-247.91 130.87,-256.18 134.58,-250.24"/>
</g>
<!-- Node(value=2, rank=0) -->
<g id="node6" class="node">
<title>Node(value=2, rank=0)</title>
<ellipse fill="none" stroke="white" cx="215.59" cy="-234" rx="27" ry="18"/>
<text text-anchor="middle" x="215.59" y="-229.32" font-family="'Cascadia Code PL', 'JetBrains Mono', 'Iosevka', 'Fira Code', 'Hack', monospace" font-size="14.00" fill="white">2</text>
</g>
<!-- Node(value=1, rank=1)&#45;&gt;Node(value=2, rank=0) -->
<g id="edge3" class="edge">
<title>Node(value=1, rank=1)&#45;&gt;Node(value=2, rank=0)</title>
<path fill="none" stroke="white" d="M215.59,-287.7C215.59,-280.41 215.59,-271.73 215.59,-263.54"/>
<polygon fill="none" stroke="white" points="219.09,-263.62 215.59,-253.62 212.09,-263.62 219.09,-263.62"/>
</g>
<!-- Node(value=4, rank=0) -->
<g id="node3" class="node">
<title>Node(value=4, rank=0)</title>
<ellipse fill="none" stroke="white" cx="365.59" cy="-234" rx="27" ry="18"/>
<text text-anchor="middle" x="365.59" y="-229.32" font-family="'Cascadia Code PL', 'JetBrains Mono', 'Iosevka', 'Fira Code', 'Hack', monospace" font-size="14.00" fill="white">4</text>
</g>
<!-- nil6 -->
<g id="node15" class="node">
<title>nil6</title>
<ellipse fill="none" stroke="white" cx="328.59" cy="-162" rx="28.59" ry="18"/>
<text text-anchor="middle" x="328.59" y="-157.32" font-family="'Cascadia Code PL', 'JetBrains Mono', 'Iosevka', 'Fira Code', 'Hack', monospace" font-size="14.00" fill="white">nil</text>
</g>
<!-- Node(value=4, rank=0)&#45;&gt;nil6 -->
<g id="edge15" class="edge">
<title>Node(value=4, rank=0)&#45;&gt;nil6</title>
<path fill="none" stroke="white" d="M357,-216.76C352.77,-208.75 347.55,-198.88 342.74,-189.79"/>
<polygon fill="none" stroke="white" points="345.85,-188.18 338.08,-180.97 339.66,-191.45 345.85,-188.18"/>
</g>
<!-- nil7 -->
<g id="node16" class="node">
<title>nil7</title>
<ellipse fill="none" stroke="white" cx="403.59" cy="-162" rx="28.59" ry="18"/>
<text text-anchor="middle" x="403.59" y="-157.32" font-family="'Cascadia Code PL', 'JetBrains Mono', 'Iosevka', 'Fira Code', 'Hack', monospace" font-size="14.00" fill="white">nil</text>
</g>
<!-- Node(value=4, rank=0)&#45;&gt;nil7 -->
<g id="edge16" class="edge">
<title>Node(value=4, rank=0)&#45;&gt;nil7</title>
<path fill="none" stroke="white" d="M374.4,-216.76C378.86,-208.55 384.38,-198.37 389.42,-189.09"/>
<polygon fill="none" stroke="white" points="392.4,-190.94 394.1,-180.48 386.25,-187.6 392.4,-190.94"/>
</g>
<!-- Node(value=7, rank=1) -->
<g id="node4" class="node">
<title>Node(value=7, rank=1)</title>
<ellipse fill="none" stroke="red" cx="477.59" cy="-234" rx="27" ry="18"/>
<text text-anchor="middle" x="477.59" y="-229.32" font-family="'Cascadia Code PL', 'JetBrains Mono', 'Iosevka', 'Fira Code', 'Hack', monospace" font-size="14.00" fill="white">7</text>
</g>
<!-- Node(value=6, rank=0) -->
<g id="node8" class="node">
<title>Node(value=6, rank=0)</title>
<ellipse fill="none" stroke="white" cx="477.59" cy="-162" rx="27" ry="18"/>
<text text-anchor="middle" x="477.59" y="-157.32" font-family="'Cascadia Code PL', 'JetBrains Mono', 'Iosevka', 'Fira Code', 'Hack', monospace" font-size="14.00" fill="white">6</text>
</g>
<!-- Node(value=7, rank=1)&#45;&gt;Node(value=6, rank=0) -->
<g id="edge7" class="edge">
<title>Node(value=7, rank=1)&#45;&gt;Node(value=6, rank=0)</title>
<path fill="none" stroke="white" d="M477.59,-215.7C477.59,-208.41 477.59,-199.73 477.59,-191.54"/>
<polygon fill="none" stroke="white" points="481.09,-191.62 477.59,-181.62 474.09,-191.62 481.09,-191.62"/>
</g>
<!-- Node(value=8, rank=0) -->
<g id="node9" class="node">
<title>Node(value=8, rank=0)</title>
<ellipse fill="none" stroke="white" cx="552.59" cy="-162" rx="27" ry="18"/>
<text text-anchor="middle" x="552.59" y="-157.32" font-family="'Cascadia Code PL', 'JetBrains Mono', 'Iosevka', 'Fira Code', 'Hack', monospace" font-size="14.00" fill="white">8</text>
</g>
<!-- Node(value=7, rank=1)&#45;&gt;Node(value=8, rank=0) -->
<g id="edge8" class="edge">
<title>Node(value=7, rank=1)&#45;&gt;Node(value=8, rank=0)</title>
<path fill="none" stroke="white" d="M492.76,-218.83C503.23,-209.06 517.35,-195.88 529.25,-184.78"/>
<polygon fill="none" stroke="white" points="531.4,-187.56 536.32,-178.18 526.63,-182.44 531.4,-187.56"/>
</g>
<!-- nil2 -->
<g id="node11" class="node">
<title>nil2</title>
<ellipse fill="none" stroke="white" cx="28.59" cy="-162" rx="28.59" ry="18"/>
<text text-anchor="middle" x="28.59" y="-157.32" font-family="'Cascadia Code PL', 'JetBrains Mono', 'Iosevka', 'Fira Code', 'Hack', monospace" font-size="14.00" fill="white">nil</text>
</g>
<!-- Node(value=0, rank=0)&#45;&gt;nil2 -->
<g id="edge11" class="edge">
<title>Node(value=0, rank=0)&#45;&gt;nil2</title>
<path fill="none" stroke="white" d="M88.41,-218.83C78.01,-209.13 64,-196.06 52.16,-185"/>
<polygon fill="none" stroke="white" points="54.8,-182.68 45.1,-178.42 50.03,-187.8 54.8,-182.68"/>
</g>
<!-- nil3 -->
<g id="node12" class="node">
<title>nil3</title>
<ellipse fill="none" stroke="white" cx="103.59" cy="-162" rx="28.59" ry="18"/>
<text text-anchor="middle" x="103.59" y="-157.32" font-family="'Cascadia Code PL', 'JetBrains Mono', 'Iosevka', 'Fira Code', 'Hack', monospace" font-size="14.00" fill="white">nil</text>
</g>
<!-- Node(value=0, rank=0)&#45;&gt;nil3 -->
<g id="edge12" class="edge">
<title>Node(value=0, rank=0)&#45;&gt;nil3</title>
<path fill="none" stroke="white" d="M103.59,-215.7C103.59,-208.41 103.59,-199.73 103.59,-191.54"/>
<polygon fill="none" stroke="white" points="107.09,-191.62 103.59,-181.62 100.09,-191.62 107.09,-191.62"/>
</g>
<!-- nil4 -->
<g id="node13" class="node">
<title>nil4</title>
<ellipse fill="none" stroke="white" cx="178.59" cy="-162" rx="28.59" ry="18"/>
<text text-anchor="middle" x="178.59" y="-157.32" font-family="'Cascadia Code PL', 'JetBrains Mono', 'Iosevka', 'Fira Code', 'Hack', monospace" font-size="14.00" fill="white">nil</text>
</g>
<!-- Node(value=2, rank=0)&#45;&gt;nil4 -->
<g id="edge13" class="edge">
<title>Node(value=2, rank=0)&#45;&gt;nil4</title>
<path fill="none" stroke="white" d="M207,-216.76C202.77,-208.75 197.55,-198.88 192.74,-189.79"/>
<polygon fill="none" stroke="white" points="195.85,-188.18 188.08,-180.97 189.66,-191.45 195.85,-188.18"/>
</g>
<!-- nil5 -->
<g id="node14" class="node">
<title>nil5</title>
<ellipse fill="none" stroke="white" cx="253.59" cy="-162" rx="28.59" ry="18"/>
<text text-anchor="middle" x="253.59" y="-157.32" font-family="'Cascadia Code PL', 'JetBrains Mono', 'Iosevka', 'Fira Code', 'Hack', monospace" font-size="14.00" fill="white">nil</text>
</g>
<!-- Node(value=2, rank=0)&#45;&gt;nil5 -->
<g id="edge14" class="edge">
<title>Node(value=2, rank=0)&#45;&gt;nil5</title>
<path fill="none" stroke="white" d="M224.4,-216.76C228.86,-208.55 234.38,-198.37 239.42,-189.09"/>
<polygon fill="none" stroke="white" points="242.4,-190.94 244.1,-180.48 236.25,-187.6 242.4,-190.94"/>
</g>
<!-- Node(value=5, rank=1)&#45;&gt;Node(value=4, rank=0) -->
<g id="edge5" class="edge">
<title>Node(value=5, rank=1)&#45;&gt;Node(value=4, rank=0)</title>
<path fill="none" stroke="white" d="M365.59,-287.7C365.59,-280.41 365.59,-271.73 365.59,-263.54"/>
<polygon fill="none" stroke="white" points="369.09,-263.62 365.59,-253.62 362.09,-263.62 369.09,-263.62"/>
</g>
<!-- Node(value=5, rank=1)&#45;&gt;Node(value=7, rank=1) -->
<g id="edge6" class="edge">
<title>Node(value=5, rank=1)&#45;&gt;Node(value=7, rank=1)</title>
<path fill="none" stroke="red" d="M384.84,-292.97C402.39,-282 428.56,-265.64 448.63,-253.1"/>
<polygon fill="none" stroke="red" points="450.3,-256.18 456.92,-247.91 446.59,-250.24 450.3,-256.18"/>
</g>
<!-- nil8 -->
<g id="node17" class="node">
<title>nil8</title>
<ellipse fill="none" stroke="white" cx="402.59" cy="-90" rx="28.59" ry="18"/>
<text text-anchor="middle" x="402.59" y="-85.33" font-family="'Cascadia Code PL', 'JetBrains Mono', 'Iosevka', 'Fira Code', 'Hack', monospace" font-size="14.00" fill="white">nil</text>
</g>
<!-- Node(value=6, rank=0)&#45;&gt;nil8 -->
<g id="edge17" class="edge">
<title>Node(value=6, rank=0)&#45;&gt;nil8</title>
<path fill="none" stroke="white" d="M462.41,-146.83C452.01,-137.13 438,-124.06 426.16,-113"/>
<polygon fill="none" stroke="white" points="428.8,-110.68 419.1,-106.42 424.03,-115.8 428.8,-110.68"/>
</g>
<!-- nil9 -->
<g id="node18" class="node">
<title>nil9</title>
<ellipse fill="none" stroke="white" cx="477.59" cy="-90" rx="28.59" ry="18"/>
<text text-anchor="middle" x="477.59" y="-85.33" font-family="'Cascadia Code PL', 'JetBrains Mono', 'Iosevka', 'Fira Code', 'Hack', monospace" font-size="14.00" fill="white">nil</text>
</g>
<!-- Node(value=6, rank=0)&#45;&gt;nil9 -->
<g id="edge18" class="edge">
<title>Node(value=6, rank=0)&#45;&gt;nil9</title>
<path fill="none" stroke="white" d="M477.59,-143.7C477.59,-136.41 477.59,-127.73 477.59,-119.54"/>
<polygon fill="none" stroke="white" points="481.09,-119.62 477.59,-109.62 474.09,-119.62 481.09,-119.62"/>
</g>
<!-- nil1 -->
<g id="node10" class="node">
<title>nil1</title>
<ellipse fill="none" stroke="white" cx="552.59" cy="-90" rx="28.59" ry="18"/>
<text text-anchor="middle" x="552.59" y="-85.33" font-family="'Cascadia Code PL', 'JetBrains Mono', 'Iosevka', 'Fira Code', 'Hack', monospace" font-size="14.00" fill="white">nil</text>
</g>
<!-- Node(value=8, rank=0)&#45;&gt;nil1 -->
<g id="edge9" class="edge">
<title>Node(value=8, rank=0)&#45;&gt;nil1</title>
<path fill="none" stroke="white" d="M552.59,-143.7C552.59,-136.41 552.59,-127.73 552.59,-119.54"/>
<polygon fill="none" stroke="white" points="556.09,-119.62 552.59,-109.62 549.09,-119.62 556.09,-119.62"/>
</g>
<!-- Node(value=9, rank=0) -->
<g id="node21" class="node">
<title>Node(value=9, rank=0)</title>
<ellipse fill="none" stroke="red" cx="626.59" cy="-90" rx="27" ry="18"/>
<text text-anchor="middle" x="626.59" y="-85.33" font-family="'Cascadia Code PL', 'JetBrains Mono', 'Iosevka', 'Fira Code', 'Hack', monospace" font-size="14.00" fill="white">9</text>
</g>
<!-- Node(value=8, rank=0)&#45;&gt;Node(value=9, rank=0) -->
<g id="edge10" class="edge">
<title>Node(value=8, rank=0)&#45;&gt;Node(value=9, rank=0)</title>
<path fill="none" stroke="red" d="M567.56,-146.83C577.82,-137.13 591.64,-124.06 603.33,-113"/>
<polygon fill="none" stroke="red" points="605.42,-115.84 610.28,-106.42 600.61,-110.75 605.42,-115.84"/>
</g>
<!-- nil10 -->
<g id="node19" class="node">
<title>nil10</title>
<ellipse fill="none" stroke="white" cx="588.59" cy="-18" rx="28.59" ry="18"/>
<text text-anchor="middle" x="588.59" y="-13.32" font-family="'Cascadia Code PL', 'JetBrains Mono', 'Iosevka', 'Fira Code', 'Hack', monospace" font-size="14.00" fill="white">nil</text>
</g>
<!-- nil11 -->
<g id="node20" class="node">
<title>nil11</title>
<ellipse fill="none" stroke="white" cx="663.59" cy="-18" rx="28.59" ry="18"/>
<text text-anchor="middle" x="663.59" y="-13.32" font-family="'Cascadia Code PL', 'JetBrains Mono', 'Iosevka', 'Fira Code', 'Hack', monospace" font-size="14.00" fill="white">nil</text>
</g>
<!-- Node(value=9, rank=0)&#45;&gt;nil10 -->
<g id="edge19" class="edge">
<title>Node(value=9, rank=0)&#45;&gt;nil10</title>
<path fill="none" stroke="white" d="M617.77,-72.76C613.31,-64.55 607.79,-54.37 602.75,-45.09"/>
<polygon fill="none" stroke="white" points="605.92,-43.6 598.07,-36.48 599.77,-46.94 605.92,-43.6"/>
</g>
<!-- Node(value=9, rank=0)&#45;&gt;nil11 -->
<g id="edge20" class="edge">
<title>Node(value=9, rank=0)&#45;&gt;nil11</title>
<path fill="none" stroke="white" d="M635.17,-72.76C639.4,-64.75 644.62,-54.88 649.43,-45.79"/>
<polygon fill="none" stroke="white" points="652.51,-47.45 654.09,-36.97 646.32,-44.18 652.51,-47.45"/>
</g>
</g>
</svg>
