<?xml version="1.0" encoding="UTF-8" standalone="no"?>
<!DOCTYPE svg PUBLIC "-//W3C//DTD SVG 1.1//EN"
 "http://www.w3.org/Graphics/SVG/1.1/DTD/svg11.dtd">
<!-- Generated by graphviz version 12.2.1 (0)
 -->
<!-- Pages: 1 -->
<svg width="723pt" height="404pt"
 viewBox="0.00 0.00 723.17 404.00" xmlns="http://www.w3.org/2000/svg" xmlns:xlink="http://www.w3.org/1999/xlink">
<g id="graph0" class="graph" transform="scale(1 1) rotate(0) translate(4 400)">
<polygon fill="white" stroke="none" points="-4,4 -4,-400 719.17,-400 719.17,4 -4,4"/>
<!-- Node(value=3, rank=2) -->
<g id="node1" class="node">
<title>Node(value=3, rank=2)</title>
<ellipse fill="none" stroke="black" cx="284.59" cy="-378" rx="34.37" ry="18"/>
<text text-anchor="middle" x="284.59" y="-373.32" font-family="'Cascadia Code PL', 'JetBrains Mono', 'Iosevka', 'Fira Code', 'Hack', monospace" font-size="14.00">3⁽³⁾</text>
</g>
<!-- Node(value=1, rank=1) -->
<g id="node2" class="node">
<title>Node(value=1, rank=1)</title>
<ellipse fill="none" stroke="black" cx="215.59" cy="-306" rx="34.37" ry="18"/>
<text text-anchor="middle" x="215.59" y="-301.32" font-family="'Cascadia Code PL', 'JetBrains Mono', 'Iosevka', 'Fira Code', 'Hack', monospace" font-size="14.00">1⁽²⁾</text>
</g>
<!-- Node(value=3, rank=2)&#45;&gt;Node(value=1, rank=1) -->
<g id="edge1" class="edge">
<title>Node(value=3, rank=2)&#45;&gt;Node(value=1, rank=1)</title>
<path fill="none" stroke="black" d="M269.27,-361.46C260.34,-352.4 248.89,-340.79 238.86,-330.61"/>
<polygon fill="black" stroke="black" points="241.43,-328.23 231.92,-323.57 236.45,-333.15 241.43,-328.23"/>
</g>
<!-- Node(value=5, rank=1) -->
<g id="node7" class="node">
<title>Node(value=5, rank=1)</title>
<ellipse fill="none" stroke="black" cx="362.59" cy="-306" rx="34.37" ry="18"/>
<text text-anchor="middle" x="362.59" y="-301.32" font-family="'Cascadia Code PL', 'JetBrains Mono', 'Iosevka', 'Fira Code', 'Hack', monospace" font-size="14.00">5⁽²⁾</text>
</g>
<!-- Node(value=3, rank=2)&#45;&gt;Node(value=5, rank=1) -->
<g id="edge4" class="edge">
<title>Node(value=3, rank=2)&#45;&gt;Node(value=5, rank=1)</title>
<path fill="none" stroke="black" d="M301.13,-362.15C311.71,-352.66 325.63,-340.16 337.55,-329.47"/>
<polygon fill="black" stroke="black" points="339.57,-332.36 344.67,-323.08 334.89,-327.15 339.57,-332.36"/>
</g>
<!-- Node(value=0, rank=0) -->
<g id="node5" class="node">
<title>Node(value=0, rank=0)</title>
<ellipse fill="none" stroke="black" cx="103.59" cy="-234" rx="34.37" ry="18"/>
<text text-anchor="middle" x="103.59" y="-229.32" font-family="'Cascadia Code PL', 'JetBrains Mono', 'Iosevka', 'Fira Code', 'Hack', monospace" font-size="14.00">0⁽¹⁾</text>
</g>
<!-- Node(value=1, rank=1)&#45;&gt;Node(value=0, rank=0) -->
<g id="edge2" class="edge">
<title>Node(value=1, rank=1)&#45;&gt;Node(value=0, rank=0)</title>
<path fill="none" stroke="black" d="M193.99,-291.5C177.18,-281 153.61,-266.27 134.76,-254.48"/>
<polygon fill="black" stroke="black" points="136.73,-251.59 126.4,-249.26 133.02,-257.53 136.73,-251.59"/>
</g>
<!-- Node(value=2, rank=0) -->
<g id="node6" class="node">
<title>Node(value=2, rank=0)</title>
<ellipse fill="none" stroke="black" cx="215.59" cy="-234" rx="34.37" ry="18"/>
<text text-anchor="middle" x="215.59" y="-229.32" font-family="'Cascadia Code PL', 'JetBrains Mono', 'Iosevka', 'Fira Code', 'Hack', monospace" font-size="14.00">2⁽¹⁾</text>
</g>
<!-- Node(value=1, rank=1)&#45;&gt;Node(value=2, rank=0) -->
<g id="edge3" class="edge">
<title>Node(value=1, rank=1)&#45;&gt;Node(value=2, rank=0)</title>
<path fill="none" stroke="black" d="M215.59,-287.7C215.59,-280.41 215.59,-271.73 215.59,-263.54"/>
<polygon fill="black" stroke="black" points="219.09,-263.62 215.59,-253.62 212.09,-263.62 219.09,-263.62"/>
</g>
<!-- Node(value=4, rank=0) -->
<g id="node3" class="node">
<title>Node(value=4, rank=0)</title>
<ellipse fill="none" stroke="black" cx="362.59" cy="-234" rx="34.37" ry="18"/>
<text text-anchor="middle" x="362.59" y="-229.32" font-family="'Cascadia Code PL', 'JetBrains Mono', 'Iosevka', 'Fira Code', 'Hack', monospace" font-size="14.00">4⁽¹⁾</text>
</g>
<!-- nil6 -->
<g id="node15" class="node">
<title>nil6</title>
<ellipse fill="none" stroke="black" cx="328.59" cy="-162" rx="28.59" ry="18"/>
<text text-anchor="middle" x="328.59" y="-157.32" font-family="'Cascadia Code PL', 'JetBrains Mono', 'Iosevka', 'Fira Code', 'Hack', monospace" font-size="14.00">nil</text>
</g>
<!-- Node(value=4, rank=0)&#45;&gt;nil6 -->
<g id="edge15" class="edge">
<title>Node(value=4, rank=0)&#45;&gt;nil6</title>
<path fill="none" stroke="black" d="M354.35,-216.05C350.5,-208.12 345.81,-198.47 341.5,-189.59"/>
<polygon fill="black" stroke="black" points="344.68,-188.13 337.17,-180.67 338.39,-191.19 344.68,-188.13"/>
</g>
<!-- nil7 -->
<g id="node16" class="node">
<title>nil7</title>
<ellipse fill="none" stroke="black" cx="403.59" cy="-162" rx="28.59" ry="18"/>
<text text-anchor="middle" x="403.59" y="-157.32" font-family="'Cascadia Code PL', 'JetBrains Mono', 'Iosevka', 'Fira Code', 'Hack', monospace" font-size="14.00">nil</text>
</g>
<!-- Node(value=4, rank=0)&#45;&gt;nil7 -->
<g id="edge16" class="edge">
<title>Node(value=4, rank=0)&#45;&gt;nil7</title>
<path fill="none" stroke="black" d="M372.3,-216.41C377.12,-208.19 383.05,-198.06 388.44,-188.85"/>
<polygon fill="black" stroke="black" points="391.42,-190.69 393.46,-180.29 385.38,-187.15 391.42,-190.69"/>
</g>
<!-- Node(value=7, rank=1) -->
<g id="node4" class="node">
<title>Node(value=7, rank=1)</title>
<ellipse fill="none" stroke="red" cx="484.59" cy="-234" rx="34.37" ry="18"/>
<text text-anchor="middle" x="484.59" y="-229.32" font-family="'Cascadia Code PL', 'JetBrains Mono', 'Iosevka', 'Fira Code', 'Hack', monospace" font-size="14.00">7⁽²⁾</text>
</g>
<!-- Node(value=6, rank=0) -->
<g id="node8" class="node">
<title>Node(value=6, rank=0)</title>
<ellipse fill="none" stroke="black" cx="484.59" cy="-162" rx="34.37" ry="18"/>
<text text-anchor="middle" x="484.59" y="-157.32" font-family="'Cascadia Code PL', 'JetBrains Mono', 'Iosevka', 'Fira Code', 'Hack', monospace" font-size="14.00">6⁽¹⁾</text>
</g>
<!-- Node(value=7, rank=1)&#45;&gt;Node(value=6, rank=0) -->
<g id="edge7" class="edge">
<title>Node(value=7, rank=1)&#45;&gt;Node(value=6, rank=0)</title>
<path fill="none" stroke="black" d="M484.59,-215.7C484.59,-208.41 484.59,-199.73 484.59,-191.54"/>
<polygon fill="black" stroke="black" points="488.09,-191.62 484.59,-181.62 481.09,-191.62 488.09,-191.62"/>
</g>
<!-- Node(value=8, rank=0) -->
<g id="node9" class="node">
<title>Node(value=8, rank=0)</title>
<ellipse fill="none" stroke="black" cx="571.59" cy="-162" rx="34.37" ry="18"/>
<text text-anchor="middle" x="571.59" y="-157.32" font-family="'Cascadia Code PL', 'JetBrains Mono', 'Iosevka', 'Fira Code', 'Hack', monospace" font-size="14.00">8⁽¹⁾</text>
</g>
<!-- Node(value=7, rank=1)&#45;&gt;Node(value=8, rank=0) -->
<g id="edge8" class="edge">
<title>Node(value=7, rank=1)&#45;&gt;Node(value=8, rank=0)</title>
<path fill="none" stroke="black" d="M502.61,-218.5C514.66,-208.8 530.74,-195.86 544.34,-184.92"/>
<polygon fill="black" stroke="black" points="546.51,-187.67 552.1,-178.68 542.12,-182.22 546.51,-187.67"/>
</g>
<!-- nil2 -->
<g id="node11" class="node">
<title>nil2</title>
<ellipse fill="none" stroke="black" cx="28.59" cy="-162" rx="28.59" ry="18"/>
<text text-anchor="middle" x="28.59" y="-157.32" font-family="'Cascadia Code PL', 'JetBrains Mono', 'Iosevka', 'Fira Code', 'Hack', monospace" font-size="14.00">nil</text>
</g>
<!-- Node(value=0, rank=0)&#45;&gt;nil2 -->
<g id="edge11" class="edge">
<title>Node(value=0, rank=0)&#45;&gt;nil2</title>
<path fill="none" stroke="black" d="M87.31,-217.81C77.08,-208.26 63.71,-195.78 52.31,-185.14"/>
<polygon fill="black" stroke="black" points="54.86,-182.74 45.17,-178.47 50.09,-187.86 54.86,-182.74"/>
</g>
<!-- nil3 -->
<g id="node12" class="node">
<title>nil3</title>
<ellipse fill="none" stroke="black" cx="103.59" cy="-162" rx="28.59" ry="18"/>
<text text-anchor="middle" x="103.59" y="-157.32" font-family="'Cascadia Code PL', 'JetBrains Mono', 'Iosevka', 'Fira Code', 'Hack', monospace" font-size="14.00">nil</text>
</g>
<!-- Node(value=0, rank=0)&#45;&gt;nil3 -->
<g id="edge12" class="edge">
<title>Node(value=0, rank=0)&#45;&gt;nil3</title>
<path fill="none" stroke="black" d="M103.59,-215.7C103.59,-208.41 103.59,-199.73 103.59,-191.54"/>
<polygon fill="black" stroke="black" points="107.09,-191.62 103.59,-181.62 100.09,-191.62 107.09,-191.62"/>
</g>
<!-- nil4 -->
<g id="node13" class="node">
<title>nil4</title>
<ellipse fill="none" stroke="black" cx="178.59" cy="-162" rx="28.59" ry="18"/>
<text text-anchor="middle" x="178.59" y="-157.32" font-family="'Cascadia Code PL', 'JetBrains Mono', 'Iosevka', 'Fira Code', 'Hack', monospace" font-size="14.00">nil</text>
</g>
<!-- Node(value=2, rank=0)&#45;&gt;nil4 -->
<g id="edge13" class="edge">
<title>Node(value=2, rank=0)&#45;&gt;nil4</title>
<path fill="none" stroke="black" d="M206.82,-216.41C202.58,-208.39 197.39,-198.57 192.61,-189.54"/>
<polygon fill="black" stroke="black" points="195.77,-188.01 188,-180.81 189.58,-191.28 195.77,-188.01"/>
</g>
<!-- nil5 -->
<g id="node14" class="node">
<title>nil5</title>
<ellipse fill="none" stroke="black" cx="253.59" cy="-162" rx="28.59" ry="18"/>
<text text-anchor="middle" x="253.59" y="-157.32" font-family="'Cascadia Code PL', 'JetBrains Mono', 'Iosevka', 'Fira Code', 'Hack', monospace" font-size="14.00">nil</text>
</g>
<!-- Node(value=2, rank=0)&#45;&gt;nil5 -->
<g id="edge14" class="edge">
<title>Node(value=2, rank=0)&#45;&gt;nil5</title>
<path fill="none" stroke="black" d="M224.59,-216.41C228.94,-208.39 234.28,-198.57 239.18,-189.54"/>
<polygon fill="black" stroke="black" points="242.23,-191.26 243.92,-180.8 236.08,-187.92 242.23,-191.26"/>
</g>
<!-- Node(value=5, rank=1)&#45;&gt;Node(value=4, rank=0) -->
<g id="edge5" class="edge">
<title>Node(value=5, rank=1)&#45;&gt;Node(value=4, rank=0)</title>
<path fill="none" stroke="black" d="M362.59,-287.7C362.59,-280.41 362.59,-271.73 362.59,-263.54"/>
<polygon fill="black" stroke="black" points="366.09,-263.62 362.59,-253.62 359.09,-263.62 366.09,-263.62"/>
</g>
<!-- Node(value=5, rank=1)&#45;&gt;Node(value=7, rank=1) -->
<g id="edge6" class="edge">
<title>Node(value=5, rank=1)&#45;&gt;Node(value=7, rank=1)</title>
<path fill="none" stroke="red" d="M385.25,-292C404.08,-281.19 431.11,-265.68 452.22,-253.57"/>
<polygon fill="red" stroke="red" points="453.8,-256.7 460.73,-248.69 450.32,-250.63 453.8,-256.7"/>
</g>
<!-- nil8 -->
<g id="node17" class="node">
<title>nil8</title>
<ellipse fill="none" stroke="black" cx="412.59" cy="-90" rx="28.59" ry="18"/>
<text text-anchor="middle" x="412.59" y="-85.33" font-family="'Cascadia Code PL', 'JetBrains Mono', 'Iosevka', 'Fira Code', 'Hack', monospace" font-size="14.00">nil</text>
</g>
<!-- Node(value=6, rank=0)&#45;&gt;nil8 -->
<g id="edge17" class="edge">
<title>Node(value=6, rank=0)&#45;&gt;nil8</title>
<path fill="none" stroke="black" d="M468.96,-145.81C459.3,-136.42 446.72,-124.19 435.9,-113.67"/>
<polygon fill="black" stroke="black" points="438.38,-111.2 428.77,-106.73 433.5,-116.21 438.38,-111.2"/>
</g>
<!-- nil9 -->
<g id="node18" class="node">
<title>nil9</title>
<ellipse fill="none" stroke="black" cx="487.59" cy="-90" rx="28.59" ry="18"/>
<text text-anchor="middle" x="487.59" y="-85.33" font-family="'Cascadia Code PL', 'JetBrains Mono', 'Iosevka', 'Fira Code', 'Hack', monospace" font-size="14.00">nil</text>
</g>
<!-- Node(value=6, rank=0)&#45;&gt;nil9 -->
<g id="edge18" class="edge">
<title>Node(value=6, rank=0)&#45;&gt;nil9</title>
<path fill="none" stroke="black" d="M485.33,-143.7C485.64,-136.41 486.01,-127.73 486.36,-119.54"/>
<polygon fill="black" stroke="black" points="489.86,-119.76 486.79,-109.62 482.86,-119.46 489.86,-119.76"/>
</g>
<!-- nil1 -->
<g id="node10" class="node">
<title>nil1</title>
<ellipse fill="none" stroke="black" cx="568.59" cy="-90" rx="28.59" ry="18"/>
<text text-anchor="middle" x="568.59" y="-85.33" font-family="'Cascadia Code PL', 'JetBrains Mono', 'Iosevka', 'Fira Code', 'Hack', monospace" font-size="14.00">nil</text>
</g>
<!-- Node(value=8, rank=0)&#45;&gt;nil1 -->
<g id="edge9" class="edge">
<title>Node(value=8, rank=0)&#45;&gt;nil1</title>
<path fill="none" stroke="black" d="M570.84,-143.7C570.53,-136.41 570.16,-127.73 569.81,-119.54"/>
<polygon fill="black" stroke="black" points="573.31,-119.46 569.38,-109.62 566.31,-119.76 573.31,-119.46"/>
</g>
<!-- Node(value=9, rank=0) -->
<g id="node21" class="node">
<title>Node(value=9, rank=0)</title>
<ellipse fill="none" stroke="red" cx="649.59" cy="-90" rx="34.37" ry="18"/>
<text text-anchor="middle" x="649.59" y="-85.33" font-family="'Cascadia Code PL', 'JetBrains Mono', 'Iosevka', 'Fira Code', 'Hack', monospace" font-size="14.00">9⁽¹⁾</text>
</g>
<!-- Node(value=8, rank=0)&#45;&gt;Node(value=9, rank=0) -->
<g id="edge10" class="edge">
<title>Node(value=8, rank=0)&#45;&gt;Node(value=9, rank=0)</title>
<path fill="none" stroke="red" d="M588.13,-146.15C598.71,-136.66 612.63,-124.16 624.55,-113.47"/>
<polygon fill="red" stroke="red" points="626.57,-116.36 631.67,-107.08 621.89,-111.15 626.57,-116.36"/>
</g>
<!-- nil10 -->
<g id="node19" class="node">
<title>nil10</title>
<ellipse fill="none" stroke="black" cx="611.59" cy="-18" rx="28.59" ry="18"/>
<text text-anchor="middle" x="611.59" y="-13.32" font-family="'Cascadia Code PL', 'JetBrains Mono', 'Iosevka', 'Fira Code', 'Hack', monospace" font-size="14.00">nil</text>
</g>
<!-- nil11 -->
<g id="node20" class="node">
<title>nil11</title>
<ellipse fill="none" stroke="black" cx="686.59" cy="-18" rx="28.59" ry="18"/>
<text text-anchor="middle" x="686.59" y="-13.32" font-family="'Cascadia Code PL', 'JetBrains Mono', 'Iosevka', 'Fira Code', 'Hack', monospace" font-size="14.00">nil</text>
</g>
<!-- Node(value=9, rank=0)&#45;&gt;nil10 -->
<g id="edge19" class="edge">
<title>Node(value=9, rank=0)&#45;&gt;nil10</title>
<path fill="none" stroke="black" d="M640.58,-72.41C636.23,-64.39 630.89,-54.57 625.99,-45.54"/>
<polygon fill="black" stroke="black" points="629.1,-43.92 621.25,-36.8 622.94,-47.26 629.1,-43.92"/>
</g>
<!-- Node(value=9, rank=0)&#45;&gt;nil11 -->
<g id="edge20" class="edge">
<title>Node(value=9, rank=0)&#45;&gt;nil11</title>
<path fill="none" stroke="black" d="M658.35,-72.41C662.59,-64.39 667.79,-54.57 672.56,-45.54"/>
<polygon fill="black" stroke="black" points="675.59,-47.28 677.17,-36.81 669.41,-44.01 675.59,-47.28"/>
</g>
</g>
</svg>
