<?xml version="1.0" encoding="UTF-8" standalone="no"?>
<!DOCTYPE svg PUBLIC "-//W3C//DTD SVG 1.1//EN"
 "http://www.w3.org/Graphics/SVG/1.1/DTD/svg11.dtd">
<!-- Generated by graphviz version 2.43.0 (0)
 -->
<!-- Title: %3 Pages: 1 -->
<svg width="566pt" height="260pt"
 viewBox="0.00 0.00 566.00 260.00" xmlns="http://www.w3.org/2000/svg" xmlns:xlink="http://www.w3.org/1999/xlink">
<g id="graph0" class="graph" transform="scale(1 1) rotate(0) translate(4 256)">
<title>%3</title>
<polygon fill="#1b1b1d" stroke="transparent" points="-4,4 -4,-256 562,-256 562,4 -4,4"/>
<!-- Node(value=3, rank=2) -->
<g id="node1" class="node">
<title>Node(value=3, rank=2)</title>
<ellipse fill="none" stroke="white" cx="279" cy="-234" rx="27" ry="18"/>
<text text-anchor="middle" x="279" y="-230.3" font-family="'Cascadia Code PL', 'JetBrains Mono', 'Iosevka', 'Fira Code', 'Hack', monospace" font-size="14.00" fill="white">3</text>
</g>
<!-- Node(value=1, rank=1) -->
<g id="node2" class="node">
<title>Node(value=1, rank=1)</title>
<ellipse fill="none" stroke="red" cx="207" cy="-162" rx="27" ry="18"/>
<text text-anchor="middle" x="207" y="-158.3" font-family="'Cascadia Code PL', 'JetBrains Mono', 'Iosevka', 'Fira Code', 'Hack', monospace" font-size="14.00" fill="white">1</text>
</g>
<!-- Node(value=3, rank=2)&#45;&gt;Node(value=1, rank=1) -->
<g id="edge1" class="edge">
<title>Node(value=3, rank=2)&#45;&gt;Node(value=1, rank=1)</title>
<path fill="none" stroke="white" d="M264.43,-218.83C254.25,-208.94 240.48,-195.55 228.97,-184.36"/>
<polygon fill="transparent" stroke="white" points="231.41,-181.85 221.8,-177.38 226.53,-186.87 231.41,-181.85"/>
</g>
<!-- Node(value=5, rank=1) -->
<g id="node7" class="node">
<title>Node(value=5, rank=1)</title>
<ellipse fill="none" stroke="white" cx="351" cy="-162" rx="27" ry="18"/>
<text text-anchor="middle" x="351" y="-158.3" font-family="'Cascadia Code PL', 'JetBrains Mono', 'Iosevka', 'Fira Code', 'Hack', monospace" font-size="14.00" fill="white">5</text>
</g>
<!-- Node(value=3, rank=2)&#45;&gt;Node(value=5, rank=1) -->
<g id="edge4" class="edge">
<title>Node(value=3, rank=2)&#45;&gt;Node(value=5, rank=1)</title>
<path fill="none" stroke="white" d="M293.57,-218.83C303.75,-208.94 317.52,-195.55 329.03,-184.36"/>
<polygon fill="transparent" stroke="white" points="331.47,-186.87 336.2,-177.38 326.59,-181.85 331.47,-186.87"/>
</g>
<!-- Node(value=0, rank=0) -->
<g id="node5" class="node">
<title>Node(value=0, rank=0)</title>
<ellipse fill="none" stroke="white" cx="99" cy="-90" rx="27" ry="18"/>
<text text-anchor="middle" x="99" y="-86.3" font-family="'Cascadia Code PL', 'JetBrains Mono', 'Iosevka', 'Fira Code', 'Hack', monospace" font-size="14.00" fill="white">0</text>
</g>
<!-- Node(value=1, rank=1)&#45;&gt;Node(value=0, rank=0) -->
<g id="edge2" class="edge">
<title>Node(value=1, rank=1)&#45;&gt;Node(value=0, rank=0)</title>
<path fill="none" stroke="white" d="M188.19,-148.81C171,-137.67 145.38,-121.06 126.01,-108.5"/>
<polygon fill="transparent" stroke="white" points="127.89,-105.56 117.6,-103.05 124.08,-111.43 127.89,-105.56"/>
</g>
<!-- Node(value=2, rank=0) -->
<g id="node6" class="node">
<title>Node(value=2, rank=0)</title>
<ellipse fill="none" stroke="white" cx="207" cy="-90" rx="27" ry="18"/>
<text text-anchor="middle" x="207" y="-86.3" font-family="'Cascadia Code PL', 'JetBrains Mono', 'Iosevka', 'Fira Code', 'Hack', monospace" font-size="14.00" fill="white">2</text>
</g>
<!-- Node(value=1, rank=1)&#45;&gt;Node(value=2, rank=0) -->
<g id="edge3" class="edge">
<title>Node(value=1, rank=1)&#45;&gt;Node(value=2, rank=0)</title>
<path fill="none" stroke="white" d="M207,-143.7C207,-135.98 207,-126.71 207,-118.11"/>
<polygon fill="transparent" stroke="white" points="210.5,-118.1 207,-108.1 203.5,-118.1 210.5,-118.1"/>
</g>
<!-- Node(value=4, rank=0) -->
<g id="node3" class="node">
<title>Node(value=4, rank=0)</title>
<ellipse fill="none" stroke="red" cx="351" cy="-90" rx="27" ry="18"/>
<text text-anchor="middle" x="351" y="-86.3" font-family="'Cascadia Code PL', 'JetBrains Mono', 'Iosevka', 'Fira Code', 'Hack', monospace" font-size="14.00" fill="white">4</text>
</g>
<!-- nil6 -->
<g id="node12" class="node">
<title>nil6</title>
<ellipse fill="none" stroke="transparent" cx="315" cy="-18" rx="27" ry="18"/>
</g>
<!-- Node(value=4, rank=0)&#45;&gt;nil6 -->
<g id="edge11" class="edge">
<title>Node(value=4, rank=0)&#45;&gt;nil6</title>
<path fill="none" stroke="white" d="M342.65,-72.76C338.29,-64.28 332.85,-53.71 327.96,-44.2"/>
<polygon fill="transparent" stroke="white" points="330.99,-42.44 323.3,-35.15 324.77,-45.64 330.99,-42.44"/>
</g>
<!-- nil7 -->
<g id="node13" class="node">
<title>nil7</title>
<ellipse fill="none" stroke="transparent" cx="387" cy="-18" rx="27" ry="18"/>
</g>
<!-- Node(value=4, rank=0)&#45;&gt;nil7 -->
<g id="edge12" class="edge">
<title>Node(value=4, rank=0)&#45;&gt;nil7</title>
<path fill="none" stroke="white" d="M359.35,-72.76C363.71,-64.28 369.15,-53.71 374.04,-44.2"/>
<polygon fill="transparent" stroke="white" points="377.23,-45.64 378.7,-35.15 371.01,-42.44 377.23,-45.64"/>
</g>
<!-- Node(value=7, rank=0) -->
<g id="node4" class="node">
<title>Node(value=7, rank=0)</title>
<ellipse fill="none" stroke="red" cx="459" cy="-90" rx="27" ry="18"/>
<text text-anchor="middle" x="459" y="-86.3" font-family="'Cascadia Code PL', 'JetBrains Mono', 'Iosevka', 'Fira Code', 'Hack', monospace" font-size="14.00" fill="white">7</text>
</g>
<!-- nil8 -->
<g id="node14" class="node">
<title>nil8</title>
<ellipse fill="none" stroke="transparent" cx="459" cy="-18" rx="27" ry="18"/>
</g>
<!-- Node(value=7, rank=0)&#45;&gt;nil8 -->
<g id="edge13" class="edge">
<title>Node(value=7, rank=0)&#45;&gt;nil8</title>
<path fill="none" stroke="white" d="M459,-71.7C459,-63.98 459,-54.71 459,-46.11"/>
<polygon fill="transparent" stroke="white" points="462.5,-46.1 459,-36.1 455.5,-46.1 462.5,-46.1"/>
</g>
<!-- nil9 -->
<g id="node15" class="node">
<title>nil9</title>
<ellipse fill="none" stroke="transparent" cx="531" cy="-18" rx="27" ry="18"/>
</g>
<!-- Node(value=7, rank=0)&#45;&gt;nil9 -->
<g id="edge14" class="edge">
<title>Node(value=7, rank=0)&#45;&gt;nil9</title>
<path fill="none" stroke="white" d="M473.57,-74.83C483.75,-64.94 497.52,-51.55 509.03,-40.36"/>
<polygon fill="transparent" stroke="white" points="511.47,-42.87 516.2,-33.38 506.59,-37.85 511.47,-42.87"/>
</g>
<!-- nil2 -->
<g id="node8" class="node">
<title>nil2</title>
<ellipse fill="none" stroke="transparent" cx="27" cy="-18" rx="27" ry="18"/>
</g>
<!-- Node(value=0, rank=0)&#45;&gt;nil2 -->
<g id="edge7" class="edge">
<title>Node(value=0, rank=0)&#45;&gt;nil2</title>
<path fill="none" stroke="white" d="M84.43,-74.83C74.25,-64.94 60.48,-51.55 48.97,-40.36"/>
<polygon fill="transparent" stroke="white" points="51.41,-37.85 41.8,-33.38 46.53,-42.87 51.41,-37.85"/>
</g>
<!-- nil3 -->
<g id="node9" class="node">
<title>nil3</title>
<ellipse fill="none" stroke="transparent" cx="99" cy="-18" rx="27" ry="18"/>
</g>
<!-- Node(value=0, rank=0)&#45;&gt;nil3 -->
<g id="edge8" class="edge">
<title>Node(value=0, rank=0)&#45;&gt;nil3</title>
<path fill="none" stroke="white" d="M99,-71.7C99,-63.98 99,-54.71 99,-46.11"/>
<polygon fill="transparent" stroke="white" points="102.5,-46.1 99,-36.1 95.5,-46.1 102.5,-46.1"/>
</g>
<!-- nil4 -->
<g id="node10" class="node">
<title>nil4</title>
<ellipse fill="none" stroke="transparent" cx="171" cy="-18" rx="27" ry="18"/>
</g>
<!-- Node(value=2, rank=0)&#45;&gt;nil4 -->
<g id="edge9" class="edge">
<title>Node(value=2, rank=0)&#45;&gt;nil4</title>
<path fill="none" stroke="white" d="M198.65,-72.76C194.29,-64.28 188.85,-53.71 183.96,-44.2"/>
<polygon fill="transparent" stroke="white" points="186.99,-42.44 179.3,-35.15 180.77,-45.64 186.99,-42.44"/>
</g>
<!-- nil5 -->
<g id="node11" class="node">
<title>nil5</title>
<ellipse fill="none" stroke="transparent" cx="243" cy="-18" rx="27" ry="18"/>
</g>
<!-- Node(value=2, rank=0)&#45;&gt;nil5 -->
<g id="edge10" class="edge">
<title>Node(value=2, rank=0)&#45;&gt;nil5</title>
<path fill="none" stroke="white" d="M215.35,-72.76C219.71,-64.28 225.15,-53.71 230.04,-44.2"/>
<polygon fill="transparent" stroke="white" points="233.23,-45.64 234.7,-35.15 227.01,-42.44 233.23,-45.64"/>
</g>
<!-- Node(value=5, rank=1)&#45;&gt;Node(value=4, rank=0) -->
<g id="edge5" class="edge">
<title>Node(value=5, rank=1)&#45;&gt;Node(value=4, rank=0)</title>
<path fill="none" stroke="white" d="M351,-143.7C351,-135.98 351,-126.71 351,-118.11"/>
<polygon fill="transparent" stroke="white" points="354.5,-118.1 351,-108.1 347.5,-118.1 354.5,-118.1"/>
</g>
<!-- Node(value=5, rank=1)&#45;&gt;Node(value=7, rank=0) -->
<g id="edge6" class="edge">
<title>Node(value=5, rank=1)&#45;&gt;Node(value=7, rank=0)</title>
<path fill="none" stroke="red" d="M369.81,-148.81C387,-137.67 412.62,-121.06 431.99,-108.5"/>
<polygon fill="transparent" stroke="red" points="433.92,-111.43 440.4,-103.05 430.11,-105.56 433.92,-111.43"/>
</g>
</g>
</svg>
