<?xml version="1.0" encoding="UTF-8" standalone="no"?>
<!DOCTYPE svg PUBLIC "-//W3C//DTD SVG 1.1//EN"
 "http://www.w3.org/Graphics/SVG/1.1/DTD/svg11.dtd">
<!-- Generated by graphviz version 12.2.1 (0)
 -->
<!-- Pages: 1 -->
<svg width="602pt" height="332pt"
 viewBox="0.00 0.00 602.00 332.00" xmlns="http://www.w3.org/2000/svg" xmlns:xlink="http://www.w3.org/1999/xlink">
<g id="graph0" class="graph" transform="scale(1 1) rotate(0) translate(4 328)">
<polygon fill="#1b1b1d" stroke="none" points="-4,4 -4,-328 598,-328 598,4 -4,4"/>
<!-- Node(value=3, rank=2) -->
<g id="node1" class="node">
<title>Node(value=3, rank=2)</title>
<ellipse fill="none" stroke="white" cx="279" cy="-306" rx="27" ry="18"/>
<text text-anchor="middle" x="279" y="-301.32" font-family="'Cascadia Code PL', 'JetBrains Mono', 'Iosevka', 'Fira Code', 'Hack', monospace" font-size="14.00" fill="white">3</text>
</g>
<!-- Node(value=1, rank=1) -->
<g id="node2" class="node">
<title>Node(value=1, rank=1)</title>
<ellipse fill="none" stroke="red" cx="225" cy="-234" rx="27" ry="18"/>
<text text-anchor="middle" x="225" y="-229.32" font-family="'Cascadia Code PL', 'JetBrains Mono', 'Iosevka', 'Fira Code', 'Hack', monospace" font-size="14.00" fill="white">1</text>
</g>
<!-- Node(value=3, rank=2)&#45;&gt;Node(value=1, rank=1) -->
<g id="edge1" class="edge">
<title>Node(value=3, rank=2)&#45;&gt;Node(value=1, rank=1)</title>
<path fill="none" stroke="white" d="M267.02,-289.46C260.23,-280.67 251.6,-269.48 243.92,-259.53"/>
<polygon fill="none" stroke="white" points="246.75,-257.47 237.88,-251.69 241.21,-261.75 246.75,-257.47"/>
</g>
<!-- Node(value=5, rank=1) -->
<g id="node7" class="node">
<title>Node(value=5, rank=1)</title>
<ellipse fill="none" stroke="white" cx="333" cy="-234" rx="27" ry="18"/>
<text text-anchor="middle" x="333" y="-229.32" font-family="'Cascadia Code PL', 'JetBrains Mono', 'Iosevka', 'Fira Code', 'Hack', monospace" font-size="14.00" fill="white">5</text>
</g>
<!-- Node(value=3, rank=2)&#45;&gt;Node(value=5, rank=1) -->
<g id="edge4" class="edge">
<title>Node(value=3, rank=2)&#45;&gt;Node(value=5, rank=1)</title>
<path fill="none" stroke="white" d="M290.98,-289.46C297.77,-280.67 306.4,-269.48 314.08,-259.53"/>
<polygon fill="none" stroke="white" points="316.79,-261.75 320.12,-251.69 311.25,-257.47 316.79,-261.75"/>
</g>
<!-- Node(value=0, rank=0) -->
<g id="node5" class="node">
<title>Node(value=0, rank=0)</title>
<ellipse fill="none" stroke="white" cx="99" cy="-162" rx="27" ry="18"/>
<text text-anchor="middle" x="99" y="-157.32" font-family="'Cascadia Code PL', 'JetBrains Mono', 'Iosevka', 'Fira Code', 'Hack', monospace" font-size="14.00" fill="white">0</text>
</g>
<!-- Node(value=1, rank=1)&#45;&gt;Node(value=0, rank=0) -->
<g id="edge2" class="edge">
<title>Node(value=1, rank=1)&#45;&gt;Node(value=0, rank=0)</title>
<path fill="none" stroke="white" d="M204.76,-221.75C184.27,-210.37 152.38,-192.65 128.97,-179.65"/>
<polygon fill="none" stroke="white" points="130.96,-176.75 120.52,-174.95 127.56,-182.87 130.96,-176.75"/>
</g>
<!-- Node(value=2, rank=0) -->
<g id="node6" class="node">
<title>Node(value=2, rank=0)</title>
<ellipse fill="none" stroke="white" cx="225" cy="-162" rx="27" ry="18"/>
<text text-anchor="middle" x="225" y="-157.32" font-family="'Cascadia Code PL', 'JetBrains Mono', 'Iosevka', 'Fira Code', 'Hack', monospace" font-size="14.00" fill="white">2</text>
</g>
<!-- Node(value=1, rank=1)&#45;&gt;Node(value=2, rank=0) -->
<g id="edge3" class="edge">
<title>Node(value=1, rank=1)&#45;&gt;Node(value=2, rank=0)</title>
<path fill="none" stroke="white" d="M225,-215.7C225,-208.41 225,-199.73 225,-191.54"/>
<polygon fill="none" stroke="white" points="228.5,-191.62 225,-181.62 221.5,-191.62 228.5,-191.62"/>
</g>
<!-- Node(value=4, rank=0) -->
<g id="node3" class="node">
<title>Node(value=4, rank=0)</title>
<ellipse fill="none" stroke="red" cx="333" cy="-162" rx="27" ry="18"/>
<text text-anchor="middle" x="333" y="-157.32" font-family="'Cascadia Code PL', 'JetBrains Mono', 'Iosevka', 'Fira Code', 'Hack', monospace" font-size="14.00" fill="white">4</text>
</g>
<!-- nil6 -->
<g id="node12" class="node">
<title>nil6</title>
<ellipse fill="none" stroke="none" cx="315" cy="-90" rx="27" ry="18"/>
</g>
<!-- Node(value=4, rank=0)&#45;&gt;nil6 -->
<g id="edge11" class="edge">
<title>Node(value=4, rank=0)&#45;&gt;nil6</title>
<path fill="none" stroke="white" d="M328.64,-144.05C326.7,-136.49 324.35,-127.37 322.16,-118.85"/>
<polygon fill="none" stroke="white" points="325.57,-118.07 319.69,-109.25 318.79,-119.81 325.57,-118.07"/>
</g>
<!-- nil7 -->
<g id="node13" class="node">
<title>nil7</title>
<ellipse fill="none" stroke="none" cx="387" cy="-90" rx="27" ry="18"/>
</g>
<!-- Node(value=4, rank=0)&#45;&gt;nil7 -->
<g id="edge12" class="edge">
<title>Node(value=4, rank=0)&#45;&gt;nil7</title>
<path fill="none" stroke="white" d="M344.98,-145.46C351.77,-136.67 360.4,-125.48 368.08,-115.53"/>
<polygon fill="none" stroke="white" points="370.79,-117.75 374.12,-107.69 365.25,-113.47 370.79,-117.75"/>
</g>
<!-- Node(value=7, rank=0) -->
<g id="node4" class="node">
<title>Node(value=7, rank=0)</title>
<ellipse fill="none" stroke="red" cx="459" cy="-162" rx="27" ry="18"/>
<text text-anchor="middle" x="459" y="-157.32" font-family="'Cascadia Code PL', 'JetBrains Mono', 'Iosevka', 'Fira Code', 'Hack', monospace" font-size="14.00" fill="white">7</text>
</g>
<!-- nil8 -->
<g id="node14" class="node">
<title>nil8</title>
<ellipse fill="none" stroke="none" cx="459" cy="-90" rx="27" ry="18"/>
</g>
<!-- Node(value=7, rank=0)&#45;&gt;nil8 -->
<g id="edge13" class="edge">
<title>Node(value=7, rank=0)&#45;&gt;nil8</title>
<path fill="none" stroke="white" d="M459,-143.7C459,-136.41 459,-127.73 459,-119.54"/>
<polygon fill="none" stroke="white" points="462.5,-119.62 459,-109.62 455.5,-119.62 462.5,-119.62"/>
</g>
<!-- 8 -->
<g id="node17" class="node">
<title>8</title>
<ellipse fill="none" stroke="red" cx="531" cy="-90" rx="27" ry="18"/>
<text text-anchor="middle" x="531" y="-85.33" font-family="'Cascadia Code PL', 'JetBrains Mono', 'Iosevka', 'Fira Code', 'Hack', monospace" font-size="14.00" fill="white">8</text>
</g>
<!-- Node(value=7, rank=0)&#45;&gt;8 -->
<g id="edge14" class="edge">
<title>Node(value=7, rank=0)&#45;&gt;8</title>
<path fill="none" stroke="red" d="M473.92,-146.5C483.77,-136.92 496.86,-124.19 508.03,-113.34"/>
<polygon fill="none" stroke="red" points="510.29,-116.02 515.02,-106.54 505.41,-111 510.29,-116.02"/>
</g>
<!-- nil2 -->
<g id="node8" class="node">
<title>nil2</title>
<ellipse fill="none" stroke="none" cx="27" cy="-90" rx="27" ry="18"/>
</g>
<!-- Node(value=0, rank=0)&#45;&gt;nil2 -->
<g id="edge7" class="edge">
<title>Node(value=0, rank=0)&#45;&gt;nil2</title>
<path fill="none" stroke="white" d="M84.08,-146.5C74.23,-136.92 61.14,-124.19 49.97,-113.34"/>
<polygon fill="none" stroke="white" points="52.59,-111 42.98,-106.54 47.71,-116.02 52.59,-111"/>
</g>
<!-- nil3 -->
<g id="node9" class="node">
<title>nil3</title>
<ellipse fill="none" stroke="none" cx="99" cy="-90" rx="27" ry="18"/>
</g>
<!-- Node(value=0, rank=0)&#45;&gt;nil3 -->
<g id="edge8" class="edge">
<title>Node(value=0, rank=0)&#45;&gt;nil3</title>
<path fill="none" stroke="white" d="M99,-143.7C99,-136.41 99,-127.73 99,-119.54"/>
<polygon fill="none" stroke="white" points="102.5,-119.62 99,-109.62 95.5,-119.62 102.5,-119.62"/>
</g>
<!-- nil4 -->
<g id="node10" class="node">
<title>nil4</title>
<ellipse fill="none" stroke="none" cx="171" cy="-90" rx="27" ry="18"/>
</g>
<!-- Node(value=2, rank=0)&#45;&gt;nil4 -->
<g id="edge9" class="edge">
<title>Node(value=2, rank=0)&#45;&gt;nil4</title>
<path fill="none" stroke="white" d="M213.02,-145.46C206.23,-136.67 197.6,-125.48 189.92,-115.53"/>
<polygon fill="none" stroke="white" points="192.75,-113.47 183.88,-107.69 187.21,-117.75 192.75,-113.47"/>
</g>
<!-- nil5 -->
<g id="node11" class="node">
<title>nil5</title>
<ellipse fill="none" stroke="none" cx="243" cy="-90" rx="27" ry="18"/>
</g>
<!-- Node(value=2, rank=0)&#45;&gt;nil5 -->
<g id="edge10" class="edge">
<title>Node(value=2, rank=0)&#45;&gt;nil5</title>
<path fill="none" stroke="white" d="M229.36,-144.05C231.3,-136.49 233.65,-127.37 235.84,-118.85"/>
<polygon fill="none" stroke="white" points="239.21,-119.81 238.31,-109.25 232.43,-118.07 239.21,-119.81"/>
</g>
<!-- Node(value=5, rank=1)&#45;&gt;Node(value=4, rank=0) -->
<g id="edge5" class="edge">
<title>Node(value=5, rank=1)&#45;&gt;Node(value=4, rank=0)</title>
<path fill="none" stroke="white" d="M333,-215.7C333,-208.41 333,-199.73 333,-191.54"/>
<polygon fill="none" stroke="white" points="336.5,-191.62 333,-181.62 329.5,-191.62 336.5,-191.62"/>
</g>
<!-- Node(value=5, rank=1)&#45;&gt;Node(value=7, rank=0) -->
<g id="edge6" class="edge">
<title>Node(value=5, rank=1)&#45;&gt;Node(value=7, rank=0)</title>
<path fill="none" stroke="red" d="M353.24,-221.75C373.73,-210.37 405.62,-192.65 429.03,-179.65"/>
<polygon fill="none" stroke="red" points="430.44,-182.87 437.48,-174.95 427.04,-176.75 430.44,-182.87"/>
</g>
<!-- nil9 -->
<g id="node15" class="node">
<title>nil9</title>
<ellipse fill="none" stroke="none" cx="495" cy="-18" rx="27" ry="18"/>
</g>
<!-- nil10 -->
<g id="node16" class="node">
<title>nil10</title>
<ellipse fill="none" stroke="none" cx="567" cy="-18" rx="27" ry="18"/>
</g>
<!-- 8&#45;&gt;nil9 -->
<g id="edge15" class="edge">
<title>8&#45;&gt;nil9</title>
<path fill="none" stroke="white" d="M522.65,-72.76C518.42,-64.55 513.19,-54.37 508.42,-45.09"/>
<polygon fill="none" stroke="white" points="511.68,-43.79 504,-36.49 505.46,-46.99 511.68,-43.79"/>
</g>
<!-- 8&#45;&gt;nil10 -->
<g id="edge16" class="edge">
<title>8&#45;&gt;nil10</title>
<path fill="none" stroke="white" d="M539.35,-72.76C543.58,-64.55 548.81,-54.37 553.58,-45.09"/>
<polygon fill="none" stroke="white" points="556.54,-46.99 558,-36.49 550.32,-43.79 556.54,-46.99"/>
</g>
</g>
</svg>
