<?xml version="1.0" encoding="UTF-8" standalone="no"?>
<!DOCTYPE svg PUBLIC "-//W3C//DTD SVG 1.1//EN"
 "http://www.w3.org/Graphics/SVG/1.1/DTD/svg11.dtd">
<!-- Generated by graphviz version 2.43.0 (0)
 -->
<!-- Title: RBTree Pages: 1 -->
<svg width="422pt" height="332pt"
 viewBox="0.00 0.00 422.00 332.00" xmlns="http://www.w3.org/2000/svg" xmlns:xlink="http://www.w3.org/1999/xlink">
<g id="graph0" class="graph" transform="scale(1 1) rotate(0) translate(4 328)">
<title>RBTree</title>
<polygon fill="white" stroke="transparent" points="-4,4 -4,-328 418,-328 418,4 -4,4"/>
<!-- 139660434247376 -->
<g id="node1" class="node">
<title>139660434247376</title>
<ellipse fill="none" stroke="black" cx="207" cy="-306" rx="27" ry="18"/>
<text text-anchor="middle" x="207" y="-302.3" font-family="'Cascadia Code PL', 'JetBrains Mono', 'Iosevka', 'Fira Code', 'Hack', monospace" font-size="14.00">9</text>
</g>
<!-- 139660436098128 -->
<g id="node2" class="node">
<title>139660436098128</title>
<ellipse fill="none" stroke="black" cx="171" cy="-234" rx="27" ry="18"/>
<text text-anchor="middle" x="171" y="-230.3" font-family="'Cascadia Code PL', 'JetBrains Mono', 'Iosevka', 'Fira Code', 'Hack', monospace" font-size="14.00">5</text>
</g>
<!-- 139660434247376&#45;&gt;139660436098128 -->
<g id="edge1" class="edge">
<title>139660434247376&#45;&gt;139660436098128</title>
<path fill="none" stroke="black" d="M198.65,-288.76C194.29,-280.28 188.85,-269.71 183.96,-260.2"/>
<polygon fill="black" stroke="black" points="186.99,-258.44 179.3,-251.15 180.77,-261.64 186.99,-258.44"/>
</g>
<!-- 139660435793424 -->
<g id="node7" class="node">
<title>139660435793424</title>
<ellipse fill="none" stroke="red" cx="243" cy="-234" rx="27" ry="18"/>
<text text-anchor="middle" x="243" y="-230.3" font-family="'Cascadia Code PL', 'JetBrains Mono', 'Iosevka', 'Fira Code', 'Hack', monospace" font-size="14.00">15</text>
</g>
<!-- 139660434247376&#45;&gt;139660435793424 -->
<g id="edge6" class="edge">
<title>139660434247376&#45;&gt;139660435793424</title>
<path fill="none" stroke="red" d="M215.35,-288.76C219.71,-280.28 225.15,-269.71 230.04,-260.2"/>
<polygon fill="red" stroke="red" points="233.23,-261.64 234.7,-251.15 227.01,-258.44 233.23,-261.64"/>
</g>
<!-- 139660435887760 -->
<g id="node3" class="node">
<title>139660435887760</title>
<ellipse fill="none" stroke="red" cx="99" cy="-162" rx="27" ry="18"/>
<text text-anchor="middle" x="99" y="-158.3" font-family="'Cascadia Code PL', 'JetBrains Mono', 'Iosevka', 'Fira Code', 'Hack', monospace" font-size="14.00">2</text>
</g>
<!-- 139660436098128&#45;&gt;139660435887760 -->
<g id="edge2" class="edge">
<title>139660436098128&#45;&gt;139660435887760</title>
<path fill="none" stroke="red" d="M156.43,-218.83C146.25,-208.94 132.48,-195.55 120.97,-184.36"/>
<polygon fill="red" stroke="red" points="123.41,-181.85 113.8,-177.38 118.53,-186.87 123.41,-181.85"/>
</g>
<!-- R139660436098128 -->
<g id="node6" class="node">
<title>R139660436098128</title>
<ellipse fill="none" stroke="transparent" cx="171" cy="-162" rx="27" ry="18"/>
</g>
<!-- 139660436098128&#45;&gt;R139660436098128 -->
<g id="edge5" class="edge">
<title>139660436098128&#45;&gt;R139660436098128</title>
<path fill="none" stroke="black" d="M171,-215.7C171,-207.98 171,-198.71 171,-190.11"/>
<polygon fill="black" stroke="black" points="174.5,-190.1 171,-180.1 167.5,-190.1 174.5,-190.1"/>
</g>
<!-- L139660435887760 -->
<g id="node4" class="node">
<title>L139660435887760</title>
<ellipse fill="none" stroke="transparent" cx="27" cy="-90" rx="27" ry="18"/>
</g>
<!-- 139660435887760&#45;&gt;L139660435887760 -->
<g id="edge3" class="edge">
<title>139660435887760&#45;&gt;L139660435887760</title>
<path fill="none" stroke="black" d="M84.43,-146.83C74.25,-136.94 60.48,-123.55 48.97,-112.36"/>
<polygon fill="black" stroke="black" points="51.41,-109.85 41.8,-105.38 46.53,-114.87 51.41,-109.85"/>
</g>
<!-- R139660435887760 -->
<g id="node5" class="node">
<title>R139660435887760</title>
<ellipse fill="none" stroke="transparent" cx="99" cy="-90" rx="27" ry="18"/>
</g>
<!-- 139660435887760&#45;&gt;R139660435887760 -->
<g id="edge4" class="edge">
<title>139660435887760&#45;&gt;R139660435887760</title>
<path fill="none" stroke="black" d="M99,-143.7C99,-135.98 99,-126.71 99,-118.11"/>
<polygon fill="black" stroke="black" points="102.5,-118.1 99,-108.1 95.5,-118.1 102.5,-118.1"/>
</g>
<!-- 139660435791312 -->
<g id="node8" class="node">
<title>139660435791312</title>
<ellipse fill="none" stroke="black" cx="243" cy="-162" rx="27" ry="18"/>
<text text-anchor="middle" x="243" y="-158.3" font-family="'Cascadia Code PL', 'JetBrains Mono', 'Iosevka', 'Fira Code', 'Hack', monospace" font-size="14.00">12</text>
</g>
<!-- 139660435793424&#45;&gt;139660435791312 -->
<g id="edge7" class="edge">
<title>139660435793424&#45;&gt;139660435791312</title>
<path fill="none" stroke="black" d="M243,-215.7C243,-207.98 243,-198.71 243,-190.11"/>
<polygon fill="black" stroke="black" points="246.5,-190.1 243,-180.1 239.5,-190.1 246.5,-190.1"/>
</g>
<!-- 139660435887824 -->
<g id="node13" class="node">
<title>139660435887824</title>
<ellipse fill="none" stroke="black" cx="315" cy="-162" rx="27" ry="18"/>
<text text-anchor="middle" x="315" y="-158.3" font-family="'Cascadia Code PL', 'JetBrains Mono', 'Iosevka', 'Fira Code', 'Hack', monospace" font-size="14.00">18</text>
</g>
<!-- 139660435793424&#45;&gt;139660435887824 -->
<g id="edge12" class="edge">
<title>139660435793424&#45;&gt;139660435887824</title>
<path fill="none" stroke="black" d="M257.57,-218.83C267.75,-208.94 281.52,-195.55 293.03,-184.36"/>
<polygon fill="black" stroke="black" points="295.47,-186.87 300.2,-177.38 290.59,-181.85 295.47,-186.87"/>
</g>
<!-- L139660435791312 -->
<g id="node9" class="node">
<title>L139660435791312</title>
<ellipse fill="none" stroke="transparent" cx="171" cy="-90" rx="27" ry="18"/>
</g>
<!-- 139660435791312&#45;&gt;L139660435791312 -->
<g id="edge8" class="edge">
<title>139660435791312&#45;&gt;L139660435791312</title>
<path fill="none" stroke="black" d="M228.43,-146.83C218.25,-136.94 204.48,-123.55 192.97,-112.36"/>
<polygon fill="black" stroke="black" points="195.41,-109.85 185.8,-105.38 190.53,-114.87 195.41,-109.85"/>
</g>
<!-- 139660435793488 -->
<g id="node10" class="node">
<title>139660435793488</title>
<ellipse fill="none" stroke="red" cx="243" cy="-90" rx="27" ry="18"/>
<text text-anchor="middle" x="243" y="-86.3" font-family="'Cascadia Code PL', 'JetBrains Mono', 'Iosevka', 'Fira Code', 'Hack', monospace" font-size="14.00">13</text>
</g>
<!-- 139660435791312&#45;&gt;139660435793488 -->
<g id="edge9" class="edge">
<title>139660435791312&#45;&gt;139660435793488</title>
<path fill="none" stroke="red" d="M243,-143.7C243,-135.98 243,-126.71 243,-118.11"/>
<polygon fill="red" stroke="red" points="246.5,-118.1 243,-108.1 239.5,-118.1 246.5,-118.1"/>
</g>
<!-- L139660435793488 -->
<g id="node11" class="node">
<title>L139660435793488</title>
<ellipse fill="none" stroke="transparent" cx="207" cy="-18" rx="27" ry="18"/>
</g>
<!-- 139660435793488&#45;&gt;L139660435793488 -->
<g id="edge10" class="edge">
<title>139660435793488&#45;&gt;L139660435793488</title>
<path fill="none" stroke="black" d="M234.65,-72.76C230.29,-64.28 224.85,-53.71 219.96,-44.2"/>
<polygon fill="black" stroke="black" points="222.99,-42.44 215.3,-35.15 216.77,-45.64 222.99,-42.44"/>
</g>
<!-- R139660435793488 -->
<g id="node12" class="node">
<title>R139660435793488</title>
<ellipse fill="none" stroke="transparent" cx="279" cy="-18" rx="27" ry="18"/>
</g>
<!-- 139660435793488&#45;&gt;R139660435793488 -->
<g id="edge11" class="edge">
<title>139660435793488&#45;&gt;R139660435793488</title>
<path fill="none" stroke="black" d="M251.35,-72.76C255.71,-64.28 261.15,-53.71 266.04,-44.2"/>
<polygon fill="black" stroke="black" points="269.23,-45.64 270.7,-35.15 263.01,-42.44 269.23,-45.64"/>
</g>
<!-- L139660435887824 -->
<g id="node14" class="node">
<title>L139660435887824</title>
<ellipse fill="none" stroke="transparent" cx="315" cy="-90" rx="27" ry="18"/>
</g>
<!-- 139660435887824&#45;&gt;L139660435887824 -->
<g id="edge13" class="edge">
<title>139660435887824&#45;&gt;L139660435887824</title>
<path fill="none" stroke="black" d="M315,-143.7C315,-135.98 315,-126.71 315,-118.11"/>
<polygon fill="black" stroke="black" points="318.5,-118.1 315,-108.1 311.5,-118.1 318.5,-118.1"/>
</g>
<!-- R139660435887824 -->
<g id="node15" class="node">
<title>R139660435887824</title>
<ellipse fill="none" stroke="transparent" cx="387" cy="-90" rx="27" ry="18"/>
</g>
<!-- 139660435887824&#45;&gt;R139660435887824 -->
<g id="edge14" class="edge">
<title>139660435887824&#45;&gt;R139660435887824</title>
<path fill="none" stroke="black" d="M329.57,-146.83C339.75,-136.94 353.52,-123.55 365.03,-112.36"/>
<polygon fill="black" stroke="black" points="367.47,-114.87 372.2,-105.38 362.59,-109.85 367.47,-114.87"/>
</g>
</g>
</svg>
