<?xml version="1.0" encoding="UTF-8" standalone="no"?>
<!DOCTYPE svg PUBLIC "-//W3C//DTD SVG 1.1//EN"
 "http://www.w3.org/Graphics/SVG/1.1/DTD/svg11.dtd">
<!-- Generated by graphviz version 12.2.1 (0)
 -->
<!-- Title: RBTree Pages: 1 -->
<svg width="170pt" height="188pt"
 viewBox="0.00 0.00 170.00 188.00" xmlns="http://www.w3.org/2000/svg" xmlns:xlink="http://www.w3.org/1999/xlink">
<g id="graph0" class="graph" transform="scale(1 1) rotate(0) translate(4 184)">
<title>RBTree</title>
<polygon fill="white" stroke="none" points="-4,4 -4,-184 166,-184 166,4 -4,4"/>
<!-- 140399805603280 -->
<g id="node1" class="node">
<title>140399805603280</title>
<ellipse fill="none" stroke="black" cx="99" cy="-162" rx="27" ry="18"/>
<text text-anchor="middle" x="99" y="-157.32" font-family="'Cascadia Code PL', 'JetBrains Mono', 'Iosevka', 'Fira Code', 'Hack', monospace" font-size="14.00">12</text>
</g>
<!-- 140399804142928 -->
<g id="node2" class="node">
<title>140399804142928</title>
<ellipse fill="none" stroke="red" cx="63" cy="-90" rx="27" ry="18"/>
<text text-anchor="middle" x="63" y="-85.33" font-family="'Cascadia Code PL', 'JetBrains Mono', 'Iosevka', 'Fira Code', 'Hack', monospace" font-size="14.00">5</text>
</g>
<!-- 140399805603280&#45;&gt;140399804142928 -->
<g id="edge1" class="edge">
<title>140399805603280&#45;&gt;140399804142928</title>
<path fill="none" stroke="red" d="M90.65,-144.76C86.42,-136.55 81.19,-126.37 76.42,-117.09"/>
<polygon fill="red" stroke="red" points="79.68,-115.79 72,-108.49 73.46,-118.99 79.68,-115.79"/>
</g>
<!-- R140399805603280 -->
<g id="node5" class="node">
<title>R140399805603280</title>
<ellipse fill="none" stroke="none" cx="135" cy="-90" rx="27" ry="18"/>
</g>
<!-- 140399805603280&#45;&gt;R140399805603280 -->
<g id="edge4" class="edge">
<title>140399805603280&#45;&gt;R140399805603280</title>
<path fill="none" stroke="black" d="M107.35,-144.76C111.58,-136.55 116.81,-126.37 121.58,-117.09"/>
<polygon fill="black" stroke="black" points="124.54,-118.99 126,-108.49 118.32,-115.79 124.54,-118.99"/>
</g>
<!-- L140399804142928 -->
<g id="node3" class="node">
<title>L140399804142928</title>
<ellipse fill="none" stroke="none" cx="27" cy="-18" rx="27" ry="18"/>
</g>
<!-- 140399804142928&#45;&gt;L140399804142928 -->
<g id="edge2" class="edge">
<title>140399804142928&#45;&gt;L140399804142928</title>
<path fill="none" stroke="black" d="M54.65,-72.76C50.42,-64.55 45.19,-54.37 40.42,-45.09"/>
<polygon fill="black" stroke="black" points="43.68,-43.79 36,-36.49 37.46,-46.99 43.68,-43.79"/>
</g>
<!-- R140399804142928 -->
<g id="node4" class="node">
<title>R140399804142928</title>
<ellipse fill="none" stroke="none" cx="99" cy="-18" rx="27" ry="18"/>
</g>
<!-- 140399804142928&#45;&gt;R140399804142928 -->
<g id="edge3" class="edge">
<title>140399804142928&#45;&gt;R140399804142928</title>
<path fill="none" stroke="black" d="M71.35,-72.76C75.58,-64.55 80.81,-54.37 85.58,-45.09"/>
<polygon fill="black" stroke="black" points="88.54,-46.99 90,-36.49 82.32,-43.79 88.54,-46.99"/>
</g>
</g>
</svg>
