<?xml version="1.0" encoding="UTF-8" standalone="no"?>
<!DOCTYPE svg PUBLIC "-//W3C//DTD SVG 1.1//EN"
 "http://www.w3.org/Graphics/SVG/1.1/DTD/svg11.dtd">
<!-- Generated by graphviz version 12.2.1 (0)
 -->
<!-- Title: RBTree Pages: 1 -->
<svg width="422pt" height="260pt"
 viewBox="0.00 0.00 422.00 260.00" xmlns="http://www.w3.org/2000/svg" xmlns:xlink="http://www.w3.org/1999/xlink">
<g id="graph0" class="graph" transform="scale(1 1) rotate(0) translate(4 256)">
<title>RBTree</title>
<polygon fill="#1b1b1d" stroke="none" points="-4,4 -4,-256 418,-256 418,4 -4,4"/>
<!-- 140399805910672 -->
<g id="node1" class="node">
<title>140399805910672</title>
<ellipse fill="none" stroke="white" cx="207" cy="-234" rx="27" ry="18"/>
<text text-anchor="middle" x="207" y="-229.32" font-family="'Cascadia Code PL', 'JetBrains Mono', 'Iosevka', 'Fira Code', 'Hack', monospace" font-size="14.00" fill="white">9</text>
</g>
<!-- 140399804142928 -->
<g id="node2" class="node">
<title>140399804142928</title>
<ellipse fill="none" stroke="white" cx="171" cy="-162" rx="27" ry="18"/>
<text text-anchor="middle" x="171" y="-157.32" font-family="'Cascadia Code PL', 'JetBrains Mono', 'Iosevka', 'Fira Code', 'Hack', monospace" font-size="14.00" fill="white">5</text>
</g>
<!-- 140399805910672&#45;&gt;140399804142928 -->
<g id="edge1" class="edge">
<title>140399805910672&#45;&gt;140399804142928</title>
<path fill="none" stroke="white" d="M198.65,-216.76C194.42,-208.55 189.19,-198.37 184.42,-189.09"/>
<polygon fill="none" stroke="white" points="187.68,-187.79 180,-180.49 181.46,-190.99 187.68,-187.79"/>
</g>
<!-- 140399805605392 -->
<g id="node7" class="node">
<title>140399805605392</title>
<ellipse fill="none" stroke="white" cx="243" cy="-162" rx="27" ry="18"/>
<text text-anchor="middle" x="243" y="-157.32" font-family="'Cascadia Code PL', 'JetBrains Mono', 'Iosevka', 'Fira Code', 'Hack', monospace" font-size="14.00" fill="white">15</text>
</g>
<!-- 140399805910672&#45;&gt;140399805605392 -->
<g id="edge6" class="edge">
<title>140399805910672&#45;&gt;140399805605392</title>
<path fill="none" stroke="white" d="M215.35,-216.76C219.58,-208.55 224.81,-198.37 229.58,-189.09"/>
<polygon fill="none" stroke="white" points="232.54,-190.99 234,-180.49 226.32,-187.79 232.54,-190.99"/>
</g>
<!-- 140399805700304 -->
<g id="node3" class="node">
<title>140399805700304</title>
<ellipse fill="none" stroke="red" cx="99" cy="-90" rx="27" ry="18"/>
<text text-anchor="middle" x="99" y="-85.33" font-family="'Cascadia Code PL', 'JetBrains Mono', 'Iosevka', 'Fira Code', 'Hack', monospace" font-size="14.00" fill="white">2</text>
</g>
<!-- 140399804142928&#45;&gt;140399805700304 -->
<g id="edge2" class="edge">
<title>140399804142928&#45;&gt;140399805700304</title>
<path fill="none" stroke="red" d="M156.08,-146.5C146.23,-136.92 133.14,-124.19 121.97,-113.34"/>
<polygon fill="none" stroke="red" points="124.59,-111 114.98,-106.54 119.71,-116.02 124.59,-111"/>
</g>
<!-- R140399804142928 -->
<g id="node6" class="node">
<title>R140399804142928</title>
<ellipse fill="none" stroke="none" cx="171" cy="-90" rx="27" ry="18"/>
</g>
<!-- 140399804142928&#45;&gt;R140399804142928 -->
<g id="edge5" class="edge">
<title>140399804142928&#45;&gt;R140399804142928</title>
<path fill="none" stroke="white" d="M171,-143.7C171,-136.41 171,-127.73 171,-119.54"/>
<polygon fill="none" stroke="white" points="174.5,-119.62 171,-109.62 167.5,-119.62 174.5,-119.62"/>
</g>
<!-- L140399805700304 -->
<g id="node4" class="node">
<title>L140399805700304</title>
<ellipse fill="none" stroke="none" cx="27" cy="-18" rx="27" ry="18"/>
</g>
<!-- 140399805700304&#45;&gt;L140399805700304 -->
<g id="edge3" class="edge">
<title>140399805700304&#45;&gt;L140399805700304</title>
<path fill="none" stroke="white" d="M84.08,-74.5C74.23,-64.92 61.14,-52.19 49.97,-41.34"/>
<polygon fill="none" stroke="white" points="52.59,-39 42.98,-34.54 47.71,-44.02 52.59,-39"/>
</g>
<!-- R140399805700304 -->
<g id="node5" class="node">
<title>R140399805700304</title>
<ellipse fill="none" stroke="none" cx="99" cy="-18" rx="27" ry="18"/>
</g>
<!-- 140399805700304&#45;&gt;R140399805700304 -->
<g id="edge4" class="edge">
<title>140399805700304&#45;&gt;R140399805700304</title>
<path fill="none" stroke="white" d="M99,-71.7C99,-64.41 99,-55.73 99,-47.54"/>
<polygon fill="none" stroke="white" points="102.5,-47.62 99,-37.62 95.5,-47.62 102.5,-47.62"/>
</g>
<!-- 140399805603280 -->
<g id="node8" class="node">
<title>140399805603280</title>
<ellipse fill="none" stroke="red" cx="243" cy="-90" rx="27" ry="18"/>
<text text-anchor="middle" x="243" y="-85.33" font-family="'Cascadia Code PL', 'JetBrains Mono', 'Iosevka', 'Fira Code', 'Hack', monospace" font-size="14.00" fill="white">12</text>
</g>
<!-- 140399805605392&#45;&gt;140399805603280 -->
<g id="edge7" class="edge">
<title>140399805605392&#45;&gt;140399805603280</title>
<path fill="none" stroke="red" d="M243,-143.7C243,-136.41 243,-127.73 243,-119.54"/>
<polygon fill="none" stroke="red" points="246.5,-119.62 243,-109.62 239.5,-119.62 246.5,-119.62"/>
</g>
<!-- 140399805700368 -->
<g id="node11" class="node">
<title>140399805700368</title>
<ellipse fill="none" stroke="red" cx="315" cy="-90" rx="27" ry="18"/>
<text text-anchor="middle" x="315" y="-85.33" font-family="'Cascadia Code PL', 'JetBrains Mono', 'Iosevka', 'Fira Code', 'Hack', monospace" font-size="14.00" fill="white">18</text>
</g>
<!-- 140399805605392&#45;&gt;140399805700368 -->
<g id="edge10" class="edge">
<title>140399805605392&#45;&gt;140399805700368</title>
<path fill="none" stroke="red" d="M257.92,-146.5C267.77,-136.92 280.86,-124.19 292.03,-113.34"/>
<polygon fill="none" stroke="red" points="294.29,-116.02 299.02,-106.54 289.41,-111 294.29,-116.02"/>
</g>
<!-- L140399805603280 -->
<g id="node9" class="node">
<title>L140399805603280</title>
<ellipse fill="none" stroke="none" cx="171" cy="-18" rx="27" ry="18"/>
</g>
<!-- 140399805603280&#45;&gt;L140399805603280 -->
<g id="edge8" class="edge">
<title>140399805603280&#45;&gt;L140399805603280</title>
<path fill="none" stroke="white" d="M228.08,-74.5C218.23,-64.92 205.14,-52.19 193.97,-41.34"/>
<polygon fill="none" stroke="white" points="196.59,-39 186.98,-34.54 191.71,-44.02 196.59,-39"/>
</g>
<!-- R140399805603280 -->
<g id="node10" class="node">
<title>R140399805603280</title>
<ellipse fill="none" stroke="none" cx="243" cy="-18" rx="27" ry="18"/>
</g>
<!-- 140399805603280&#45;&gt;R140399805603280 -->
<g id="edge9" class="edge">
<title>140399805603280&#45;&gt;R140399805603280</title>
<path fill="none" stroke="white" d="M243,-71.7C243,-64.41 243,-55.73 243,-47.54"/>
<polygon fill="none" stroke="white" points="246.5,-47.62 243,-37.62 239.5,-47.62 246.5,-47.62"/>
</g>
<!-- L140399805700368 -->
<g id="node12" class="node">
<title>L140399805700368</title>
<ellipse fill="none" stroke="none" cx="315" cy="-18" rx="27" ry="18"/>
</g>
<!-- 140399805700368&#45;&gt;L140399805700368 -->
<g id="edge11" class="edge">
<title>140399805700368&#45;&gt;L140399805700368</title>
<path fill="none" stroke="white" d="M315,-71.7C315,-64.41 315,-55.73 315,-47.54"/>
<polygon fill="none" stroke="white" points="318.5,-47.62 315,-37.62 311.5,-47.62 318.5,-47.62"/>
</g>
<!-- R140399805700368 -->
<g id="node13" class="node">
<title>R140399805700368</title>
<ellipse fill="none" stroke="none" cx="387" cy="-18" rx="27" ry="18"/>
</g>
<!-- 140399805700368&#45;&gt;R140399805700368 -->
<g id="edge12" class="edge">
<title>140399805700368&#45;&gt;R140399805700368</title>
<path fill="none" stroke="white" d="M329.92,-74.5C339.77,-64.92 352.86,-52.19 364.03,-41.34"/>
<polygon fill="none" stroke="white" points="366.29,-44.02 371.02,-34.54 361.41,-39 366.29,-44.02"/>
</g>
</g>
</svg>
