<?xml version="1.0" encoding="UTF-8" standalone="no"?>
<!DOCTYPE svg PUBLIC "-//W3C//DTD SVG 1.1//EN"
 "http://www.w3.org/Graphics/SVG/1.1/DTD/svg11.dtd">
<!-- Generated by graphviz version 12.2.1 (0)
 -->
<!-- Title: RBTree Pages: 1 -->
<svg width="278pt" height="188pt"
 viewBox="0.00 0.00 278.00 188.00" xmlns="http://www.w3.org/2000/svg" xmlns:xlink="http://www.w3.org/1999/xlink">
<g id="graph0" class="graph" transform="scale(1 1) rotate(0) translate(4 184)">
<title>RBTree</title>
<polygon fill="#1b1b1d" stroke="none" points="-4,4 -4,-184 274,-184 274,4 -4,4"/>
<!-- 139660434247376 -->
<g id="node1" class="node">
<title>139660434247376</title>
<ellipse fill="none" stroke="white" cx="135" cy="-162" rx="27" ry="18"/>
<text text-anchor="middle" x="135" y="-157.32" font-family="'Cascadia Code PL', 'JetBrains Mono', 'Iosevka', 'Fira Code', 'Hack', monospace" font-size="14.00" fill="white">9</text>
</g>
<!-- 139660436098128 -->
<g id="node2" class="node">
<title>139660436098128</title>
<ellipse fill="none" stroke="red" cx="99" cy="-90" rx="27" ry="18"/>
<text text-anchor="middle" x="99" y="-85.33" font-family="'Cascadia Code PL', 'JetBrains Mono', 'Iosevka', 'Fira Code', 'Hack', monospace" font-size="14.00" fill="white">5</text>
</g>
<!-- 139660434247376&#45;&gt;139660436098128 -->
<g id="edge1" class="edge">
<title>139660434247376&#45;&gt;139660436098128</title>
<path fill="none" stroke="red" d="M126.65,-144.76C122.42,-136.55 117.19,-126.37 112.42,-117.09"/>
<polygon fill="none" stroke="red" points="115.68,-115.79 108,-108.49 109.46,-118.99 115.68,-115.79"/>
</g>
<!-- 139660435791312 -->
<g id="node5" class="node">
<title>139660435791312</title>
<ellipse fill="none" stroke="red" cx="171" cy="-90" rx="27" ry="18"/>
<text text-anchor="middle" x="171" y="-85.33" font-family="'Cascadia Code PL', 'JetBrains Mono', 'Iosevka', 'Fira Code', 'Hack', monospace" font-size="14.00" fill="white">12</text>
</g>
<!-- 139660434247376&#45;&gt;139660435791312 -->
<g id="edge4" class="edge">
<title>139660434247376&#45;&gt;139660435791312</title>
<path fill="none" stroke="red" d="M143.35,-144.76C147.58,-136.55 152.81,-126.37 157.58,-117.09"/>
<polygon fill="none" stroke="red" points="160.54,-118.99 162,-108.49 154.32,-115.79 160.54,-118.99"/>
</g>
<!-- L139660436098128 -->
<g id="node3" class="node">
<title>L139660436098128</title>
<ellipse fill="none" stroke="none" cx="27" cy="-18" rx="27" ry="18"/>
</g>
<!-- 139660436098128&#45;&gt;L139660436098128 -->
<g id="edge2" class="edge">
<title>139660436098128&#45;&gt;L139660436098128</title>
<path fill="none" stroke="white" d="M84.08,-74.5C74.23,-64.92 61.14,-52.19 49.97,-41.34"/>
<polygon fill="none" stroke="white" points="52.59,-39 42.98,-34.54 47.71,-44.02 52.59,-39"/>
</g>
<!-- R139660436098128 -->
<g id="node4" class="node">
<title>R139660436098128</title>
<ellipse fill="none" stroke="none" cx="99" cy="-18" rx="27" ry="18"/>
</g>
<!-- 139660436098128&#45;&gt;R139660436098128 -->
<g id="edge3" class="edge">
<title>139660436098128&#45;&gt;R139660436098128</title>
<path fill="none" stroke="white" d="M99,-71.7C99,-64.41 99,-55.73 99,-47.54"/>
<polygon fill="none" stroke="white" points="102.5,-47.62 99,-37.62 95.5,-47.62 102.5,-47.62"/>
</g>
<!-- L139660435791312 -->
<g id="node6" class="node">
<title>L139660435791312</title>
<ellipse fill="none" stroke="none" cx="171" cy="-18" rx="27" ry="18"/>
</g>
<!-- 139660435791312&#45;&gt;L139660435791312 -->
<g id="edge5" class="edge">
<title>139660435791312&#45;&gt;L139660435791312</title>
<path fill="none" stroke="white" d="M171,-71.7C171,-64.41 171,-55.73 171,-47.54"/>
<polygon fill="none" stroke="white" points="174.5,-47.62 171,-37.62 167.5,-47.62 174.5,-47.62"/>
</g>
<!-- R139660435791312 -->
<g id="node7" class="node">
<title>R139660435791312</title>
<ellipse fill="none" stroke="none" cx="243" cy="-18" rx="27" ry="18"/>
</g>
<!-- 139660435791312&#45;&gt;R139660435791312 -->
<g id="edge6" class="edge">
<title>139660435791312&#45;&gt;R139660435791312</title>
<path fill="none" stroke="white" d="M185.92,-74.5C195.77,-64.92 208.86,-52.19 220.03,-41.34"/>
<polygon fill="none" stroke="white" points="222.29,-44.02 227.02,-34.54 217.41,-39 222.29,-44.02"/>
</g>
</g>
</svg>
