<?xml version="1.0" encoding="UTF-8" standalone="no"?>
<!DOCTYPE svg PUBLIC "-//W3C//DTD SVG 1.1//EN"
 "http://www.w3.org/Graphics/SVG/1.1/DTD/svg11.dtd">
<!-- Generated by graphviz version 12.2.1 (0)
 -->
<!-- Title: RBTree Pages: 1 -->
<svg width="422pt" height="332pt"
 viewBox="0.00 0.00 422.00 332.00" xmlns="http://www.w3.org/2000/svg" xmlns:xlink="http://www.w3.org/1999/xlink">
<g id="graph0" class="graph" transform="scale(1 1) rotate(0) translate(4 328)">
<title>RBTree</title>
<polygon fill="#1b1b1d" stroke="none" points="-4,4 -4,-328 418,-328 418,4 -4,4"/>
<!-- 139660434247376 -->
<g id="node1" class="node">
<title>139660434247376</title>
<ellipse fill="none" stroke="white" cx="207" cy="-306" rx="27" ry="18"/>
<text text-anchor="middle" x="207" y="-301.32" font-family="'Cascadia Code PL', 'JetBrains Mono', 'Iosevka', 'Fira Code', 'Hack', monospace" font-size="14.00" fill="white">9</text>
</g>
<!-- 139660436098128 -->
<g id="node2" class="node">
<title>139660436098128</title>
<ellipse fill="none" stroke="white" cx="171" cy="-234" rx="27" ry="18"/>
<text text-anchor="middle" x="171" y="-229.32" font-family="'Cascadia Code PL', 'JetBrains Mono', 'Iosevka', 'Fira Code', 'Hack', monospace" font-size="14.00" fill="white">5</text>
</g>
<!-- 139660434247376&#45;&gt;139660436098128 -->
<g id="edge1" class="edge">
<title>139660434247376&#45;&gt;139660436098128</title>
<path fill="none" stroke="white" d="M198.65,-288.76C194.42,-280.55 189.19,-270.37 184.42,-261.09"/>
<polygon fill="none" stroke="white" points="187.68,-259.79 180,-252.49 181.46,-262.99 187.68,-259.79"/>
</g>
<!-- 139660435793424 -->
<g id="node7" class="node">
<title>139660435793424</title>
<ellipse fill="none" stroke="red" cx="243" cy="-234" rx="27" ry="18"/>
<text text-anchor="middle" x="243" y="-229.32" font-family="'Cascadia Code PL', 'JetBrains Mono', 'Iosevka', 'Fira Code', 'Hack', monospace" font-size="14.00" fill="white">15</text>
</g>
<!-- 139660434247376&#45;&gt;139660435793424 -->
<g id="edge6" class="edge">
<title>139660434247376&#45;&gt;139660435793424</title>
<path fill="none" stroke="red" d="M215.35,-288.76C219.58,-280.55 224.81,-270.37 229.58,-261.09"/>
<polygon fill="none" stroke="red" points="232.54,-262.99 234,-252.49 226.32,-259.79 232.54,-262.99"/>
</g>
<!-- 139660435887760 -->
<g id="node3" class="node">
<title>139660435887760</title>
<ellipse fill="none" stroke="red" cx="99" cy="-162" rx="27" ry="18"/>
<text text-anchor="middle" x="99" y="-157.32" font-family="'Cascadia Code PL', 'JetBrains Mono', 'Iosevka', 'Fira Code', 'Hack', monospace" font-size="14.00" fill="white">2</text>
</g>
<!-- 139660436098128&#45;&gt;139660435887760 -->
<g id="edge2" class="edge">
<title>139660436098128&#45;&gt;139660435887760</title>
<path fill="none" stroke="red" d="M156.08,-218.5C146.23,-208.92 133.14,-196.19 121.97,-185.34"/>
<polygon fill="none" stroke="red" points="124.59,-183 114.98,-178.54 119.71,-188.02 124.59,-183"/>
</g>
<!-- R139660436098128 -->
<g id="node6" class="node">
<title>R139660436098128</title>
<ellipse fill="none" stroke="none" cx="171" cy="-162" rx="27" ry="18"/>
</g>
<!-- 139660436098128&#45;&gt;R139660436098128 -->
<g id="edge5" class="edge">
<title>139660436098128&#45;&gt;R139660436098128</title>
<path fill="none" stroke="white" d="M171,-215.7C171,-208.41 171,-199.73 171,-191.54"/>
<polygon fill="none" stroke="white" points="174.5,-191.62 171,-181.62 167.5,-191.62 174.5,-191.62"/>
</g>
<!-- L139660435887760 -->
<g id="node4" class="node">
<title>L139660435887760</title>
<ellipse fill="none" stroke="none" cx="27" cy="-90" rx="27" ry="18"/>
</g>
<!-- 139660435887760&#45;&gt;L139660435887760 -->
<g id="edge3" class="edge">
<title>139660435887760&#45;&gt;L139660435887760</title>
<path fill="none" stroke="white" d="M84.08,-146.5C74.23,-136.92 61.14,-124.19 49.97,-113.34"/>
<polygon fill="none" stroke="white" points="52.59,-111 42.98,-106.54 47.71,-116.02 52.59,-111"/>
</g>
<!-- R139660435887760 -->
<g id="node5" class="node">
<title>R139660435887760</title>
<ellipse fill="none" stroke="none" cx="99" cy="-90" rx="27" ry="18"/>
</g>
<!-- 139660435887760&#45;&gt;R139660435887760 -->
<g id="edge4" class="edge">
<title>139660435887760&#45;&gt;R139660435887760</title>
<path fill="none" stroke="white" d="M99,-143.7C99,-136.41 99,-127.73 99,-119.54"/>
<polygon fill="none" stroke="white" points="102.5,-119.62 99,-109.62 95.5,-119.62 102.5,-119.62"/>
</g>
<!-- 139660435791312 -->
<g id="node8" class="node">
<title>139660435791312</title>
<ellipse fill="none" stroke="white" cx="243" cy="-162" rx="27" ry="18"/>
<text text-anchor="middle" x="243" y="-157.32" font-family="'Cascadia Code PL', 'JetBrains Mono', 'Iosevka', 'Fira Code', 'Hack', monospace" font-size="14.00" fill="white">12</text>
</g>
<!-- 139660435793424&#45;&gt;139660435791312 -->
<g id="edge7" class="edge">
<title>139660435793424&#45;&gt;139660435791312</title>
<path fill="none" stroke="white" d="M243,-215.7C243,-208.41 243,-199.73 243,-191.54"/>
<polygon fill="none" stroke="white" points="246.5,-191.62 243,-181.62 239.5,-191.62 246.5,-191.62"/>
</g>
<!-- 139660435887824 -->
<g id="node13" class="node">
<title>139660435887824</title>
<ellipse fill="none" stroke="white" cx="315" cy="-162" rx="27" ry="18"/>
<text text-anchor="middle" x="315" y="-157.32" font-family="'Cascadia Code PL', 'JetBrains Mono', 'Iosevka', 'Fira Code', 'Hack', monospace" font-size="14.00" fill="white">18</text>
</g>
<!-- 139660435793424&#45;&gt;139660435887824 -->
<g id="edge12" class="edge">
<title>139660435793424&#45;&gt;139660435887824</title>
<path fill="none" stroke="white" d="M257.92,-218.5C267.77,-208.92 280.86,-196.19 292.03,-185.34"/>
<polygon fill="none" stroke="white" points="294.29,-188.02 299.02,-178.54 289.41,-183 294.29,-188.02"/>
</g>
<!-- L139660435791312 -->
<g id="node9" class="node">
<title>L139660435791312</title>
<ellipse fill="none" stroke="none" cx="171" cy="-90" rx="27" ry="18"/>
</g>
<!-- 139660435791312&#45;&gt;L139660435791312 -->
<g id="edge8" class="edge">
<title>139660435791312&#45;&gt;L139660435791312</title>
<path fill="none" stroke="white" d="M228.08,-146.5C218.23,-136.92 205.14,-124.19 193.97,-113.34"/>
<polygon fill="none" stroke="white" points="196.59,-111 186.98,-106.54 191.71,-116.02 196.59,-111"/>
</g>
<!-- 139660435793488 -->
<g id="node10" class="node">
<title>139660435793488</title>
<ellipse fill="none" stroke="red" cx="243" cy="-90" rx="27" ry="18"/>
<text text-anchor="middle" x="243" y="-85.33" font-family="'Cascadia Code PL', 'JetBrains Mono', 'Iosevka', 'Fira Code', 'Hack', monospace" font-size="14.00" fill="white">13</text>
</g>
<!-- 139660435791312&#45;&gt;139660435793488 -->
<g id="edge9" class="edge">
<title>139660435791312&#45;&gt;139660435793488</title>
<path fill="none" stroke="red" d="M243,-143.7C243,-136.41 243,-127.73 243,-119.54"/>
<polygon fill="none" stroke="red" points="246.5,-119.62 243,-109.62 239.5,-119.62 246.5,-119.62"/>
</g>
<!-- L139660435793488 -->
<g id="node11" class="node">
<title>L139660435793488</title>
<ellipse fill="none" stroke="none" cx="207" cy="-18" rx="27" ry="18"/>
</g>
<!-- 139660435793488&#45;&gt;L139660435793488 -->
<g id="edge10" class="edge">
<title>139660435793488&#45;&gt;L139660435793488</title>
<path fill="none" stroke="white" d="M234.65,-72.76C230.42,-64.55 225.19,-54.37 220.42,-45.09"/>
<polygon fill="none" stroke="white" points="223.68,-43.79 216,-36.49 217.46,-46.99 223.68,-43.79"/>
</g>
<!-- R139660435793488 -->
<g id="node12" class="node">
<title>R139660435793488</title>
<ellipse fill="none" stroke="none" cx="279" cy="-18" rx="27" ry="18"/>
</g>
<!-- 139660435793488&#45;&gt;R139660435793488 -->
<g id="edge11" class="edge">
<title>139660435793488&#45;&gt;R139660435793488</title>
<path fill="none" stroke="white" d="M251.35,-72.76C255.58,-64.55 260.81,-54.37 265.58,-45.09"/>
<polygon fill="none" stroke="white" points="268.54,-46.99 270,-36.49 262.32,-43.79 268.54,-46.99"/>
</g>
<!-- L139660435887824 -->
<g id="node14" class="node">
<title>L139660435887824</title>
<ellipse fill="none" stroke="none" cx="315" cy="-90" rx="27" ry="18"/>
</g>
<!-- 139660435887824&#45;&gt;L139660435887824 -->
<g id="edge13" class="edge">
<title>139660435887824&#45;&gt;L139660435887824</title>
<path fill="none" stroke="white" d="M315,-143.7C315,-136.41 315,-127.73 315,-119.54"/>
<polygon fill="none" stroke="white" points="318.5,-119.62 315,-109.62 311.5,-119.62 318.5,-119.62"/>
</g>
<!-- R139660435887824 -->
<g id="node15" class="node">
<title>R139660435887824</title>
<ellipse fill="none" stroke="none" cx="387" cy="-90" rx="27" ry="18"/>
</g>
<!-- 139660435887824&#45;&gt;R139660435887824 -->
<g id="edge14" class="edge">
<title>139660435887824&#45;&gt;R139660435887824</title>
<path fill="none" stroke="white" d="M329.92,-146.5C339.77,-136.92 352.86,-124.19 364.03,-113.34"/>
<polygon fill="none" stroke="white" points="366.29,-116.02 371.02,-106.54 361.41,-111 366.29,-116.02"/>
</g>
</g>
</svg>
