<?xml version="1.0" encoding="UTF-8" standalone="no"?>
<!DOCTYPE svg PUBLIC "-//W3C//DTD SVG 1.1//EN"
 "http://www.w3.org/Graphics/SVG/1.1/DTD/svg11.dtd">
<!-- Generated by graphviz version 12.2.1 (0)
 -->
<!-- Pages: 1 -->
<svg width="189pt" height="404pt"
 viewBox="0.00 0.00 189.00 404.00" xmlns="http://www.w3.org/2000/svg" xmlns:xlink="http://www.w3.org/1999/xlink">
<g id="graph0" class="graph" transform="scale(1 1) rotate(0) translate(4 400)">
<polygon fill="#1b1b1d" stroke="none" points="-4,4 -4,-400 185,-400 185,4 -4,4"/>
<!-- a -->
<g id="node1" class="node">
<title>a</title>
<ellipse fill="none" stroke="white" cx="126" cy="-378" rx="27" ry="18"/>
<text text-anchor="middle" x="126" y="-373.32" font-family="'Cascadia Code PL', 'JetBrains Mono', 'Iosevka', 'Fira Code', 'Hack', monospace" font-size="14.00" fill="white">a</text>
</g>
<!-- c -->
<g id="node2" class="node">
<title>c</title>
<ellipse fill="none" stroke="white" cx="99" cy="-306" rx="27" ry="18"/>
<text text-anchor="middle" x="99" y="-301.32" font-family="'Cascadia Code PL', 'JetBrains Mono', 'Iosevka', 'Fira Code', 'Hack', monospace" font-size="14.00" fill="white">c</text>
</g>
<!-- a&#45;&#45;c -->
<g id="edge1" class="edge">
<title>a&#45;&#45;c</title>
<path fill="none" stroke="white" d="M119.46,-360.05C115.22,-349.05 109.71,-334.76 105.48,-323.79"/>
</g>
<!-- e -->
<g id="node3" class="node">
<title>e</title>
<ellipse fill="none" stroke="white" cx="154" cy="-162" rx="27" ry="18"/>
<text text-anchor="middle" x="154" y="-157.32" font-family="'Cascadia Code PL', 'JetBrains Mono', 'Iosevka', 'Fira Code', 'Hack', monospace" font-size="14.00" fill="white">e</text>
</g>
<!-- a&#45;&#45;e -->
<g id="edge2" class="edge">
<title>a&#45;&#45;e</title>
<path fill="none" stroke="white" d="M129.14,-359.85C130.98,-349.49 133.27,-336.01 135,-324 142.49,-271.9 149.18,-210.01 152.24,-180.43"/>
</g>
<!-- i -->
<g id="node4" class="node">
<title>i</title>
<ellipse fill="none" stroke="white" cx="27" cy="-234" rx="27" ry="18"/>
<text text-anchor="middle" x="27" y="-229.32" font-family="'Cascadia Code PL', 'JetBrains Mono', 'Iosevka', 'Fira Code', 'Hack', monospace" font-size="14.00" fill="white">i</text>
</g>
<!-- c&#45;&#45;i -->
<g id="edge3" class="edge">
<title>c&#45;&#45;i</title>
<path fill="none" stroke="white" d="M84.08,-290.5C71.72,-278.48 54.25,-261.49 41.9,-249.49"/>
</g>
<!-- b -->
<g id="node5" class="node">
<title>b</title>
<ellipse fill="none" stroke="white" cx="99" cy="-234" rx="27" ry="18"/>
<text text-anchor="middle" x="99" y="-229.32" font-family="'Cascadia Code PL', 'JetBrains Mono', 'Iosevka', 'Fira Code', 'Hack', monospace" font-size="14.00" fill="white">b</text>
</g>
<!-- c&#45;&#45;b -->
<g id="edge4" class="edge">
<title>c&#45;&#45;b</title>
<path fill="none" stroke="white" d="M99,-287.7C99,-276.85 99,-262.92 99,-252.1"/>
</g>
<!-- j -->
<g id="node6" class="node">
<title>j</title>
<ellipse fill="none" stroke="white" cx="126" cy="-18" rx="27" ry="18"/>
<text text-anchor="middle" x="126" y="-13.32" font-family="'Cascadia Code PL', 'JetBrains Mono', 'Iosevka', 'Fira Code', 'Hack', monospace" font-size="14.00" fill="white">j</text>
</g>
<!-- e&#45;&#45;j -->
<g id="edge5" class="edge">
<title>e&#45;&#45;j</title>
<path fill="none" stroke="white" d="M150.62,-143.87C145.24,-116.58 134.78,-63.52 129.39,-36.19"/>
</g>
<!-- h -->
<g id="node7" class="node">
<title>h</title>
<ellipse fill="none" stroke="white" cx="99" cy="-90" rx="27" ry="18"/>
<text text-anchor="middle" x="99" y="-85.33" font-family="'Cascadia Code PL', 'JetBrains Mono', 'Iosevka', 'Fira Code', 'Hack', monospace" font-size="14.00" fill="white">h</text>
</g>
<!-- e&#45;&#45;h -->
<g id="edge6" class="edge">
<title>e&#45;&#45;h</title>
<path fill="none" stroke="white" d="M141.79,-145.46C132.68,-133.86 120.28,-118.08 111.17,-106.49"/>
</g>
<!-- d -->
<g id="node8" class="node">
<title>d</title>
<ellipse fill="none" stroke="white" cx="35" cy="-162" rx="27" ry="18"/>
<text text-anchor="middle" x="35" y="-157.32" font-family="'Cascadia Code PL', 'JetBrains Mono', 'Iosevka', 'Fira Code', 'Hack', monospace" font-size="14.00" fill="white">d</text>
</g>
<!-- i&#45;&#45;d -->
<g id="edge7" class="edge">
<title>i&#45;&#45;d</title>
<path fill="none" stroke="white" d="M28.98,-215.7C30.22,-204.85 31.81,-190.92 33.05,-180.1"/>
</g>
<!-- b&#45;&#45;h -->
<g id="edge8" class="edge">
<title>b&#45;&#45;h</title>
<path fill="none" stroke="white" d="M99,-215.59C99,-188.19 99,-135.32 99,-108.11"/>
</g>
<!-- h&#45;&#45;j -->
<g id="edge10" class="edge">
<title>h&#45;&#45;j</title>
<path fill="none" stroke="white" d="M105.54,-72.05C109.78,-61.05 115.29,-46.76 119.52,-35.79"/>
</g>
<!-- d&#45;&#45;h -->
<g id="edge9" class="edge">
<title>d&#45;&#45;h</title>
<path fill="none" stroke="white" d="M48.57,-146.15C59.43,-134.28 74.59,-117.7 85.45,-105.82"/>
</g>
</g>
</svg>
